solid OpenSCAD_Model
  facet normal -1 0 0
    outer loop
      vertex -19 0 0
      vertex -19 -10 2.22045e-15
      vertex -19 4.44089e-15 20
    endloop
  endfacet
  facet normal -1 0 0
    outer loop
      vertex -19 4.44089e-15 20
      vertex -19 -10 2.22045e-15
      vertex -19 -10 20
    endloop
  endfacet
  facet normal 0 -2.22045e-16 -1
    outer loop
      vertex 0 -10 2.22045e-15
      vertex -19 -10 2.22045e-15
      vertex 7.5 -7.5 1.66533e-15
    endloop
  endfacet
  facet normal 0 -2.22045e-16 -1
    outer loop
      vertex 172.5 -15.5 3.44169e-15
      vertex 180 0 0
      vertex 180 -23 5.10703e-15
    endloop
  endfacet
  facet normal 0 -2.22045e-16 -1
    outer loop
      vertex 7.5 -15.5 3.44169e-15
      vertex 180 -23 5.10703e-15
      vertex 0 -23 5.10703e-15
    endloop
  endfacet
  facet normal 0 -2.22045e-16 -1
    outer loop
      vertex 7.5 -15.5 3.44169e-15
      vertex 0 -10 2.22045e-15
      vertex 7.5 -7.5 1.66533e-15
    endloop
  endfacet
  facet normal 0 -2.22045e-16 -1
    outer loop
      vertex 7.5 -7.5 1.66533e-15
      vertex 180 0 0
      vertex 172.5 -7.5 1.66533e-15
    endloop
  endfacet
  facet normal 0 -2.22045e-16 -1
    outer loop
      vertex -19 0 0
      vertex 180 0 0
      vertex 7.5 -7.5 1.66533e-15
    endloop
  endfacet
  facet normal 0 -2.22045e-16 -1
    outer loop
      vertex -19 0 0
      vertex 7.5 -7.5 1.66533e-15
      vertex -19 -10 2.22045e-15
    endloop
  endfacet
  facet normal 0 -2.22045e-16 -1
    outer loop
      vertex 172.5 -7.5 1.66533e-15
      vertex 180 0 0
      vertex 172.5 -15.5 3.44169e-15
    endloop
  endfacet
  facet normal 0 -2.22045e-16 -1
    outer loop
      vertex 172.5 -15.5 3.44169e-15
      vertex 180 -23 5.10703e-15
      vertex 7.5 -15.5 3.44169e-15
    endloop
  endfacet
  facet normal 0 -2.22045e-16 -1
    outer loop
      vertex 0 -10 2.22045e-15
      vertex 7.5 -15.5 3.44169e-15
      vertex 0 -23 5.10703e-15
    endloop
  endfacet
  facet normal 0 1 -2.22045e-16
    outer loop
      vertex -7.21173 3.06428e-15 13.8003
      vertex -19 4.44089e-15 20
      vertex 180 0 0
    endloop
  endfacet
  facet normal 0 1 -2.22045e-16
    outer loop
      vertex 180 0 0
      vertex -19 4.44089e-15 20
      vertex 0 4.44089e-15 20
    endloop
  endfacet
  facet normal 0 1 -2.22045e-16
    outer loop
      vertex 180 0 0
      vertex 0 4.44089e-15 20
      vertex 0 1.11022e-14 50
    endloop
  endfacet
  facet normal 0 1 -2.22045e-16
    outer loop
      vertex 180 0 0
      vertex 0 1.11022e-14 50
      vertex 180 1.11022e-14 50
    endloop
  endfacet
  facet normal 0 1 -2.22045e-16
    outer loop
      vertex -19 0 0
      vertex -19 4.44089e-15 20
      vertex -13.2 2.22045e-15 10
    endloop
  endfacet
  facet normal 0 1 -2.22045e-16
    outer loop
      vertex -19 0 0
      vertex -13.2 2.22045e-15 10
      vertex -13.1669 2.10356e-15 9.4736
    endloop
  endfacet
  facet normal 0 1 -2.22045e-16
    outer loop
      vertex -19 0 0
      vertex -13.1669 2.10356e-15 9.4736
      vertex -13.068 1.98852e-15 8.9555
    endloop
  endfacet
  facet normal 0 1 -2.22045e-16
    outer loop
      vertex -19 0 0
      vertex -13.068 1.98852e-15 8.9555
      vertex -12.9051 1.87714e-15 8.45388
    endloop
  endfacet
  facet normal 0 1 -2.22045e-16
    outer loop
      vertex -19 0 0
      vertex -12.9051 1.87714e-15 8.45388
      vertex -12.6805 1.77117e-15 7.97663
    endloop
  endfacet
  facet normal 0 1 -2.22045e-16
    outer loop
      vertex -19 0 0
      vertex -12.6805 1.77117e-15 7.97663
      vertex -12.3979 1.67228e-15 7.5313
    endloop
  endfacet
  facet normal 0 1 -2.22045e-16
    outer loop
      vertex -19 0 0
      vertex -12.3979 1.67228e-15 7.5313
      vertex -12.0617 1.58205e-15 7.1249
    endloop
  endfacet
  facet normal 0 1 -2.22045e-16
    outer loop
      vertex -19 0 0
      vertex -12.0617 1.58205e-15 7.1249
      vertex -11.6772 1.50188e-15 6.76384
    endloop
  endfacet
  facet normal 0 1 -2.22045e-16
    outer loop
      vertex -19 0 0
      vertex -11.6772 1.50188e-15 6.76384
      vertex -11.2505 1.43304e-15 6.45382
    endloop
  endfacet
  facet normal 0 1 -2.22045e-16
    outer loop
      vertex -19 0 0
      vertex -11.2505 1.43304e-15 6.45382
      vertex -10.7883 1.37662e-15 6.19973
    endloop
  endfacet
  facet normal 0 1 -2.22045e-16
    outer loop
      vertex -19 0 0
      vertex -10.7883 1.37662e-15 6.19973
      vertex -10.2979 1.3335e-15 6.00556
    endloop
  endfacet
  facet normal 0 1 -2.22045e-16
    outer loop
      vertex -19 0 0
      vertex -10.2979 1.3335e-15 6.00556
      vertex -9.787 1.30438e-15 5.87439
    endloop
  endfacet
  facet normal 0 1 -2.22045e-16
    outer loop
      vertex -19 0 0
      vertex -9.787 1.30438e-15 5.87439
      vertex -9.26372 1.2897e-15 5.80829
    endloop
  endfacet
  facet normal 0 1 -2.22045e-16
    outer loop
      vertex -19 0 0
      vertex -9.26372 1.2897e-15 5.80829
      vertex 180 0 0
    endloop
  endfacet
  facet normal 0 1 -2.22045e-16
    outer loop
      vertex -9.26372 1.2897e-15 5.80829
      vertex -8.73628 1.2897e-15 5.80829
      vertex 180 0 0
    endloop
  endfacet
  facet normal 0 1 -2.22045e-16
    outer loop
      vertex -7.70213 1.3335e-15 6.00556
      vertex 180 0 0
      vertex -8.213 1.30438e-15 5.87439
    endloop
  endfacet
  facet normal 0 1 -2.22045e-16
    outer loop
      vertex -7.21173 1.37662e-15 6.19973
      vertex 180 0 0
      vertex -7.70213 1.3335e-15 6.00556
    endloop
  endfacet
  facet normal 0 1 -2.22045e-16
    outer loop
      vertex -6.74953 1.43304e-15 6.45382
      vertex 180 0 0
      vertex -7.21173 1.37662e-15 6.19973
    endloop
  endfacet
  facet normal 0 1 -2.22045e-16
    outer loop
      vertex -6.32282 1.50188e-15 6.76384
      vertex 180 0 0
      vertex -6.74953 1.43304e-15 6.45382
    endloop
  endfacet
  facet normal 0 1 -2.22045e-16
    outer loop
      vertex -5.93833 1.58205e-15 7.1249
      vertex 180 0 0
      vertex -6.32282 1.50188e-15 6.76384
    endloop
  endfacet
  facet normal 0 1 -2.22045e-16
    outer loop
      vertex -5.60213 1.67228e-15 7.5313
      vertex 180 0 0
      vertex -5.93833 1.58205e-15 7.1249
    endloop
  endfacet
  facet normal 0 1 -2.22045e-16
    outer loop
      vertex -5.31951 1.77117e-15 7.97663
      vertex 180 0 0
      vertex -5.60213 1.67228e-15 7.5313
    endloop
  endfacet
  facet normal 0 1 -2.22045e-16
    outer loop
      vertex -5.09494 1.87714e-15 8.45388
      vertex 180 0 0
      vertex -5.31951 1.77117e-15 7.97663
    endloop
  endfacet
  facet normal 0 1 -2.22045e-16
    outer loop
      vertex -4.93195 1.98852e-15 8.9555
      vertex 180 0 0
      vertex -5.09494 1.87714e-15 8.45388
    endloop
  endfacet
  facet normal 0 1 -2.22045e-16
    outer loop
      vertex -4.83312 2.10356e-15 9.4736
      vertex 180 0 0
      vertex -4.93195 1.98852e-15 8.9555
    endloop
  endfacet
  facet normal 0 1 -2.22045e-16
    outer loop
      vertex -4.8 2.22045e-15 10
      vertex 180 0 0
      vertex -4.83312 2.10356e-15 9.4736
    endloop
  endfacet
  facet normal 0 1 -2.22045e-16
    outer loop
      vertex -7.70213 3.10739e-15 13.9944
      vertex -19 4.44089e-15 20
      vertex -7.21173 3.06428e-15 13.8003
    endloop
  endfacet
  facet normal 0 1 -2.22045e-16
    outer loop
      vertex -10.7883 3.06428e-15 13.8003
      vertex -19 4.44089e-15 20
      vertex -10.2979 3.10739e-15 13.9944
    endloop
  endfacet
  facet normal 0 1 -2.22045e-16
    outer loop
      vertex -4.8 2.22045e-15 10
      vertex -4.83312 2.33733e-15 10.5264
      vertex 180 0 0
    endloop
  endfacet
  facet normal 0 1 -2.22045e-16
    outer loop
      vertex -10.2979 3.10739e-15 13.9944
      vertex -19 4.44089e-15 20
      vertex -9.787 3.13651e-15 14.1256
    endloop
  endfacet
  facet normal 0 1 -2.22045e-16
    outer loop
      vertex -4.83312 2.33733e-15 10.5264
      vertex -4.93195 2.45237e-15 11.0445
      vertex 180 0 0
    endloop
  endfacet
  facet normal 0 1 -2.22045e-16
    outer loop
      vertex -4.93195 2.45237e-15 11.0445
      vertex -5.09494 2.56375e-15 11.5461
      vertex 180 0 0
    endloop
  endfacet
  facet normal 0 1 -2.22045e-16
    outer loop
      vertex -9.787 3.13651e-15 14.1256
      vertex -19 4.44089e-15 20
      vertex -9.26372 3.15119e-15 14.1917
    endloop
  endfacet
  facet normal 0 1 -2.22045e-16
    outer loop
      vertex -5.09494 2.56375e-15 11.5461
      vertex -5.31951 2.66972e-15 12.0234
      vertex 180 0 0
    endloop
  endfacet
  facet normal 0 1 -2.22045e-16
    outer loop
      vertex -9.26372 3.15119e-15 14.1917
      vertex -19 4.44089e-15 20
      vertex -8.73628 3.15119e-15 14.1917
    endloop
  endfacet
  facet normal 0 1 -2.22045e-16
    outer loop
      vertex -5.31951 2.66972e-15 12.0234
      vertex -5.60213 2.76861e-15 12.4687
      vertex 180 0 0
    endloop
  endfacet
  facet normal 0 1 -2.22045e-16
    outer loop
      vertex -5.60213 2.76861e-15 12.4687
      vertex -5.93833 2.85885e-15 12.8751
      vertex 180 0 0
    endloop
  endfacet
  facet normal 0 1 -2.22045e-16
    outer loop
      vertex -8.73628 3.15119e-15 14.1917
      vertex -19 4.44089e-15 20
      vertex -8.213 3.13651e-15 14.1256
    endloop
  endfacet
  facet normal 0 1 -2.22045e-16
    outer loop
      vertex -5.93833 2.85885e-15 12.8751
      vertex -6.32282 2.93902e-15 13.2362
      vertex 180 0 0
    endloop
  endfacet
  facet normal 0 1 -2.22045e-16
    outer loop
      vertex -8.213 3.13651e-15 14.1256
      vertex -19 4.44089e-15 20
      vertex -7.70213 3.10739e-15 13.9944
    endloop
  endfacet
  facet normal 0 1 -2.22045e-16
    outer loop
      vertex -6.32282 2.93902e-15 13.2362
      vertex -6.74953 3.00786e-15 13.5462
      vertex 180 0 0
    endloop
  endfacet
  facet normal 0 1 -2.22045e-16
    outer loop
      vertex -6.74953 3.00786e-15 13.5462
      vertex -7.21173 3.06428e-15 13.8003
      vertex 180 0 0
    endloop
  endfacet
  facet normal 0 1 -2.22045e-16
    outer loop
      vertex -11.2505 3.00786e-15 13.5462
      vertex -19 4.44089e-15 20
      vertex -10.7883 3.06428e-15 13.8003
    endloop
  endfacet
  facet normal 0 1 -2.22045e-16
    outer loop
      vertex -11.6772 2.93902e-15 13.2362
      vertex -19 4.44089e-15 20
      vertex -11.2505 3.00786e-15 13.5462
    endloop
  endfacet
  facet normal 0 1 -2.22045e-16
    outer loop
      vertex -12.0617 2.85885e-15 12.8751
      vertex -19 4.44089e-15 20
      vertex -11.6772 2.93902e-15 13.2362
    endloop
  endfacet
  facet normal 0 1 -2.22045e-16
    outer loop
      vertex -12.3979 2.76861e-15 12.4687
      vertex -19 4.44089e-15 20
      vertex -12.0617 2.85885e-15 12.8751
    endloop
  endfacet
  facet normal 0 1 -2.22045e-16
    outer loop
      vertex -12.6805 2.66972e-15 12.0234
      vertex -19 4.44089e-15 20
      vertex -12.3979 2.76861e-15 12.4687
    endloop
  endfacet
  facet normal 0 1 -2.22045e-16
    outer loop
      vertex -12.9051 2.56375e-15 11.5461
      vertex -19 4.44089e-15 20
      vertex -12.6805 2.66972e-15 12.0234
    endloop
  endfacet
  facet normal 0 1 -2.22045e-16
    outer loop
      vertex -13.068 2.45237e-15 11.0445
      vertex -19 4.44089e-15 20
      vertex -12.9051 2.56375e-15 11.5461
    endloop
  endfacet
  facet normal 0 1 -2.22045e-16
    outer loop
      vertex -13.1669 2.33733e-15 10.5264
      vertex -19 4.44089e-15 20
      vertex -13.068 2.45237e-15 11.0445
    endloop
  endfacet
  facet normal 0 1 -2.22045e-16
    outer loop
      vertex -13.2 2.22045e-15 10
      vertex -19 4.44089e-15 20
      vertex -13.1669 2.33733e-15 10.5264
    endloop
  endfacet
  facet normal 0 1 -2.22045e-16
    outer loop
      vertex -8.213 1.30438e-15 5.87439
      vertex 180 0 0
      vertex -8.73628 1.2897e-15 5.80829
    endloop
  endfacet
  facet normal 0 2.22045e-16 1
    outer loop
      vertex 0 4.44089e-15 20
      vertex -19 4.44089e-15 20
      vertex -19 -10 20
    endloop
  endfacet
  facet normal 0 2.22045e-16 1
    outer loop
      vertex 0 -10 20
      vertex 0 4.44089e-15 20
      vertex -19 -10 20
    endloop
  endfacet
  facet normal 0 -1 2.22045e-16
    outer loop
      vertex -8.213 -10 5.87439
      vertex -19 -10 2.22045e-15
      vertex 0 -10 2.22045e-15
    endloop
  endfacet
  facet normal 0 -1 2.22045e-16
    outer loop
      vertex -19 -10 20
      vertex -19 -10 2.22045e-15
      vertex -13.1669 -10 9.4736
    endloop
  endfacet
  facet normal 0 -1 2.22045e-16
    outer loop
      vertex -19 -10 20
      vertex -13.1669 -10 9.4736
      vertex -13.2 -10 10
    endloop
  endfacet
  facet normal 0 -1 2.22045e-16
    outer loop
      vertex -19 -10 20
      vertex -13.2 -10 10
      vertex -13.1669 -10 10.5264
    endloop
  endfacet
  facet normal 0 -1 2.22045e-16
    outer loop
      vertex -7.70213 -10 6.00556
      vertex -8.213 -10 5.87439
      vertex 0 -10 2.22045e-15
    endloop
  endfacet
  facet normal 0 -1 2.22045e-16
    outer loop
      vertex -19 -10 20
      vertex -13.1669 -10 10.5264
      vertex -13.068 -10 11.0445
    endloop
  endfacet
  facet normal 0 -1 2.22045e-16
    outer loop
      vertex -19 -10 20
      vertex -13.068 -10 11.0445
      vertex -12.9051 -10 11.5461
    endloop
  endfacet
  facet normal 0 -1 2.22045e-16
    outer loop
      vertex -7.21173 -10 6.19973
      vertex -7.70213 -10 6.00556
      vertex 0 -10 2.22045e-15
    endloop
  endfacet
  facet normal 0 -1 2.22045e-16
    outer loop
      vertex -19 -10 20
      vertex -12.9051 -10 11.5461
      vertex -12.6805 -10 12.0234
    endloop
  endfacet
  facet normal 0 -1 2.22045e-16
    outer loop
      vertex -10.7883 -10 13.8003
      vertex -10.2979 -10 13.9944
      vertex 0 -10 20
    endloop
  endfacet
  facet normal 0 -1 2.22045e-16
    outer loop
      vertex -19 -10 20
      vertex -12.6805 -10 12.0234
      vertex -12.3979 -10 12.4687
    endloop
  endfacet
  facet normal 0 -1 2.22045e-16
    outer loop
      vertex -6.74953 -10 6.45382
      vertex -7.21173 -10 6.19973
      vertex 0 -10 2.22045e-15
    endloop
  endfacet
  facet normal 0 -1 2.22045e-16
    outer loop
      vertex -11.6772 -10 13.2362
      vertex -19 -10 20
      vertex -12.0617 -10 12.8751
    endloop
  endfacet
  facet normal 0 -1 2.22045e-16
    outer loop
      vertex -11.2505 -10 13.5462
      vertex -19 -10 20
      vertex -11.6772 -10 13.2362
    endloop
  endfacet
  facet normal 0 -1 2.22045e-16
    outer loop
      vertex 0 -10 20
      vertex -19 -10 20
      vertex -11.2505 -10 13.5462
    endloop
  endfacet
  facet normal 0 -1 2.22045e-16
    outer loop
      vertex -10.2979 -10 13.9944
      vertex -9.787 -10 14.1256
      vertex 0 -10 20
    endloop
  endfacet
  facet normal 0 -1 2.22045e-16
    outer loop
      vertex 0 -10 20
      vertex -11.2505 -10 13.5462
      vertex -10.7883 -10 13.8003
    endloop
  endfacet
  facet normal 0 -1 2.22045e-16
    outer loop
      vertex -5.09494 -10 11.5461
      vertex -4.93195 -10 11.0445
      vertex 0 -10 2.22045e-15
    endloop
  endfacet
  facet normal 0 -1 2.22045e-16
    outer loop
      vertex -5.31951 -10 7.97664
      vertex -5.60213 -10 7.5313
      vertex 0 -10 2.22045e-15
    endloop
  endfacet
  facet normal 0 -1 2.22045e-16
    outer loop
      vertex 0 -10 20
      vertex -9.787 -10 14.1256
      vertex -9.26372 -10 14.1917
    endloop
  endfacet
  facet normal 0 -1 2.22045e-16
    outer loop
      vertex -6.32282 -10 6.76384
      vertex -6.74953 -10 6.45382
      vertex 0 -10 2.22045e-15
    endloop
  endfacet
  facet normal 0 -1 2.22045e-16
    outer loop
      vertex 0 -10 20
      vertex -9.26372 -10 14.1917
      vertex -8.73628 -10 14.1917
    endloop
  endfacet
  facet normal 0 -1 2.22045e-16
    outer loop
      vertex 0 -10 20
      vertex -8.73628 -10 14.1917
      vertex -8.213 -10 14.1256
    endloop
  endfacet
  facet normal 0 -1 2.22045e-16
    outer loop
      vertex -4.93195 -10 8.9555
      vertex -5.09494 -10 8.45388
      vertex 0 -10 2.22045e-15
    endloop
  endfacet
  facet normal 0 -1 2.22045e-16
    outer loop
      vertex 0 -10 20
      vertex -8.213 -10 14.1256
      vertex -7.70213 -10 13.9944
    endloop
  endfacet
  facet normal 0 -1 2.22045e-16
    outer loop
      vertex -5.09494 -10 8.45388
      vertex -5.31951 -10 7.97664
      vertex 0 -10 2.22045e-15
    endloop
  endfacet
  facet normal 0 -1 2.22045e-16
    outer loop
      vertex 0 -10 20
      vertex -7.70213 -10 13.9944
      vertex -7.21173 -10 13.8003
    endloop
  endfacet
  facet normal 0 -1 2.22045e-16
    outer loop
      vertex 0 -10 20
      vertex -7.21173 -10 13.8003
      vertex -6.74953 -10 13.5462
    endloop
  endfacet
  facet normal 0 -1 2.22045e-16
    outer loop
      vertex -4.8 -10 10
      vertex -4.83312 -10 9.4736
      vertex 0 -10 2.22045e-15
    endloop
  endfacet
  facet normal 0 -1 2.22045e-16
    outer loop
      vertex 0 -10 20
      vertex -6.74953 -10 13.5462
      vertex -6.32282 -10 13.2362
    endloop
  endfacet
  facet normal 0 -1 2.22045e-16
    outer loop
      vertex -4.83312 -10 9.4736
      vertex -4.93195 -10 8.9555
      vertex 0 -10 2.22045e-15
    endloop
  endfacet
  facet normal 0 -1 2.22045e-16
    outer loop
      vertex 0 -10 20
      vertex -6.32282 -10 13.2362
      vertex -5.93833 -10 12.8751
    endloop
  endfacet
  facet normal 0 -1 2.22045e-16
    outer loop
      vertex 0 -10 20
      vertex -5.93833 -10 12.8751
      vertex -5.60213 -10 12.4687
    endloop
  endfacet
  facet normal 0 -1 2.22045e-16
    outer loop
      vertex -4.93195 -10 11.0445
      vertex -4.83312 -10 10.5264
      vertex 0 -10 2.22045e-15
    endloop
  endfacet
  facet normal 0 -1 2.22045e-16
    outer loop
      vertex 0 -10 20
      vertex -5.60213 -10 12.4687
      vertex -5.31951 -10 12.0234
    endloop
  endfacet
  facet normal 0 -1 2.22045e-16
    outer loop
      vertex 0 -10 20
      vertex -5.09494 -10 11.5461
      vertex 0 -10 2.22045e-15
    endloop
  endfacet
  facet normal 0 -1 2.22045e-16
    outer loop
      vertex 0 -10 20
      vertex -5.31951 -10 12.0234
      vertex -5.09494 -10 11.5461
    endloop
  endfacet
  facet normal 0 -1 2.22045e-16
    outer loop
      vertex -5.60213 -10 7.5313
      vertex -5.93833 -10 7.1249
      vertex 0 -10 2.22045e-15
    endloop
  endfacet
  facet normal 0 -1 2.22045e-16
    outer loop
      vertex -5.93833 -10 7.1249
      vertex -6.32282 -10 6.76384
      vertex 0 -10 2.22045e-15
    endloop
  endfacet
  facet normal 0 -1 2.22045e-16
    outer loop
      vertex -8.73628 -10 5.80829
      vertex -19 -10 2.22045e-15
      vertex -8.213 -10 5.87439
    endloop
  endfacet
  facet normal 0 -1 2.22045e-16
    outer loop
      vertex -9.26372 -10 5.80829
      vertex -19 -10 2.22045e-15
      vertex -8.73628 -10 5.80829
    endloop
  endfacet
  facet normal 0 -1 2.22045e-16
    outer loop
      vertex -9.787 -10 5.87439
      vertex -19 -10 2.22045e-15
      vertex -9.26372 -10 5.80829
    endloop
  endfacet
  facet normal 0 -1 2.22045e-16
    outer loop
      vertex -10.2979 -10 6.00556
      vertex -19 -10 2.22045e-15
      vertex -9.787 -10 5.87439
    endloop
  endfacet
  facet normal 0 -1 2.22045e-16
    outer loop
      vertex -10.7883 -10 6.19973
      vertex -19 -10 2.22045e-15
      vertex -10.2979 -10 6.00556
    endloop
  endfacet
  facet normal 0 -1 2.22045e-16
    outer loop
      vertex -11.2505 -10 6.45382
      vertex -19 -10 2.22045e-15
      vertex -10.7883 -10 6.19973
    endloop
  endfacet
  facet normal 0 -1 2.22045e-16
    outer loop
      vertex -11.6772 -10 6.76384
      vertex -19 -10 2.22045e-15
      vertex -11.2505 -10 6.45382
    endloop
  endfacet
  facet normal 0 -1 2.22045e-16
    outer loop
      vertex -12.0617 -10 7.1249
      vertex -19 -10 2.22045e-15
      vertex -11.6772 -10 6.76384
    endloop
  endfacet
  facet normal 0 -1 2.22045e-16
    outer loop
      vertex -12.3979 -10 7.5313
      vertex -19 -10 2.22045e-15
      vertex -12.0617 -10 7.1249
    endloop
  endfacet
  facet normal 0 -1 2.22045e-16
    outer loop
      vertex -12.6805 -10 7.97664
      vertex -19 -10 2.22045e-15
      vertex -12.3979 -10 7.5313
    endloop
  endfacet
  facet normal 0 -1 2.22045e-16
    outer loop
      vertex -12.9051 -10 8.45388
      vertex -19 -10 2.22045e-15
      vertex -12.6805 -10 7.97664
    endloop
  endfacet
  facet normal 0 -1 2.22045e-16
    outer loop
      vertex -13.068 -10 8.9555
      vertex -19 -10 2.22045e-15
      vertex -12.9051 -10 8.45388
    endloop
  endfacet
  facet normal 0 -1 2.22045e-16
    outer loop
      vertex -13.1669 -10 9.4736
      vertex -19 -10 2.22045e-15
      vertex -13.068 -10 8.9555
    endloop
  endfacet
  facet normal 0 -1 2.22045e-16
    outer loop
      vertex -12.3979 -10 12.4687
      vertex -12.0617 -10 12.8751
      vertex -19 -10 20
    endloop
  endfacet
  facet normal 0 -1 2.22045e-16
    outer loop
      vertex -4.83312 -10 10.5264
      vertex -4.8 -10 10
      vertex 0 -10 2.22045e-15
    endloop
  endfacet
  facet normal -1 0 0
    outer loop
      vertex 0 -10 2.22045e-15
      vertex 0 -23 5.10703e-15
      vertex 0 -10 20
    endloop
  endfacet
  facet normal -1 0 0
    outer loop
      vertex 0 -10 20
      vertex 0 -23 5.10703e-15
      vertex 0 -23 50
    endloop
  endfacet
  facet normal -1 0 0
    outer loop
      vertex 0 -10 20
      vertex 0 -23 50
      vertex 0 1.11022e-14 50
    endloop
  endfacet
  facet normal -1 0 0
    outer loop
      vertex 0 -10 20
      vertex 0 1.11022e-14 50
      vertex 0 4.44089e-15 20
    endloop
  endfacet
  facet normal 0 -1 2.22045e-16
    outer loop
      vertex 10 -23 12
      vertex 0 -23 5.10703e-15
      vertex 180 -23 5.10703e-15
    endloop
  endfacet
  facet normal 0 -1 2.22045e-16
    outer loop
      vertex 10 -23 12
      vertex 10 -23 50
      vertex 0 -23 50
    endloop
  endfacet
  facet normal 0 -1 2.22045e-16
    outer loop
      vertex 180 -23 50
      vertex 170 -23 50
      vertex 180 -23 5.10703e-15
    endloop
  endfacet
  facet normal 0 -1 2.22045e-16
    outer loop
      vertex 170 -23 50
      vertex 170 -23 12
      vertex 180 -23 5.10703e-15
    endloop
  endfacet
  facet normal 0 -1 2.22045e-16
    outer loop
      vertex 0 -23 50
      vertex 0 -23 5.10703e-15
      vertex 10 -23 12
    endloop
  endfacet
  facet normal 0 -1 2.22045e-16
    outer loop
      vertex 170 -23 12
      vertex 10 -23 12
      vertex 180 -23 5.10703e-15
    endloop
  endfacet
  facet normal 1 0 0
    outer loop
      vertex 180 -23 5.10703e-15
      vertex 180 0 0
      vertex 180 1.11022e-14 50
    endloop
  endfacet
  facet normal 1 0 0
    outer loop
      vertex 180 -23 50
      vertex 180 -23 5.10703e-15
      vertex 180 1.11022e-14 50
    endloop
  endfacet
  facet normal 1 0 0
    outer loop
      vertex 7.5 -7.5 5
      vertex 7.5 -15.5 5
      vertex 7.5 -15.5 3.44169e-15
    endloop
  endfacet
  facet normal 1 0 0
    outer loop
      vertex 7.5 -7.5 1.66533e-15
      vertex 7.5 -7.5 5
      vertex 7.5 -15.5 3.44169e-15
    endloop
  endfacet
  facet normal 0 -1 2.22045e-16
    outer loop
      vertex 172.5 -7.5 1.66533e-15
      vertex 172.5 -7.5 5
      vertex 7.5 -7.5 5
    endloop
  endfacet
  facet normal 0 -1 2.22045e-16
    outer loop
      vertex 7.5 -7.5 1.66533e-15
      vertex 172.5 -7.5 1.66533e-15
      vertex 7.5 -7.5 5
    endloop
  endfacet
  facet normal -1 0 0
    outer loop
      vertex 172.5 -15.5 5
      vertex 172.5 -7.5 5
      vertex 172.5 -15.5 3.44169e-15
    endloop
  endfacet
  facet normal -1 0 0
    outer loop
      vertex 172.5 -15.5 3.44169e-15
      vertex 172.5 -7.5 5
      vertex 172.5 -7.5 1.66533e-15
    endloop
  endfacet
  facet normal 0 1 -2.22045e-16
    outer loop
      vertex 172.5 -15.5 5
      vertex 172.5 -15.5 3.44169e-15
      vertex 7.5 -15.5 5
    endloop
  endfacet
  facet normal 0 1 -2.22045e-16
    outer loop
      vertex 7.5 -15.5 5
      vertex 172.5 -15.5 3.44169e-15
      vertex 7.5 -15.5 3.44169e-15
    endloop
  endfacet
  facet normal 0 2.22045e-16 1
    outer loop
      vertex 5 -18 50
      vertex 0 1.11022e-14 50
      vertex 0 -23 50
    endloop
  endfacet
  facet normal 0 2.22045e-16 1
    outer loop
      vertex 5 -18 50
      vertex 5 -5 50
      vertex 0 1.11022e-14 50
    endloop
  endfacet
  facet normal 0 2.22045e-16 1
    outer loop
      vertex 10 -18 50
      vertex 5 -18 50
      vertex 0 -23 50
    endloop
  endfacet
  facet normal 0 2.22045e-16 1
    outer loop
      vertex 180 1.11022e-14 50
      vertex 0 1.11022e-14 50
      vertex 5 -5 50
    endloop
  endfacet
  facet normal 0 2.22045e-16 1
    outer loop
      vertex 175 -18 50
      vertex 180 1.11022e-14 50
      vertex 175 -5 50
    endloop
  endfacet
  facet normal 0 2.22045e-16 1
    outer loop
      vertex 180 -23 50
      vertex 180 1.11022e-14 50
      vertex 175 -18 50
    endloop
  endfacet
  facet normal 0 2.22045e-16 1
    outer loop
      vertex 180 -23 50
      vertex 175 -18 50
      vertex 170 -23 50
    endloop
  endfacet
  facet normal 0 2.22045e-16 1
    outer loop
      vertex 170 -18 50
      vertex 170 -23 50
      vertex 175 -18 50
    endloop
  endfacet
  facet normal 0 2.22045e-16 1
    outer loop
      vertex 10 -23 50
      vertex 10 -18 50
      vertex 0 -23 50
    endloop
  endfacet
  facet normal 0 2.22045e-16 1
    outer loop
      vertex 5 -5 50
      vertex 175 -5 50
      vertex 180 1.11022e-14 50
    endloop
  endfacet
  facet normal 0.998027 -1.39422e-17 -0.06279
    outer loop
      vertex -13.1669 2.33733e-15 10.5264
      vertex -13.1669 -10 10.5264
      vertex -13.2 -10 10
    endloop
  endfacet
  facet normal 0.998027 -1.39422e-17 -0.06279
    outer loop
      vertex -13.2 2.22045e-15 10
      vertex -13.1669 2.33733e-15 10.5264
      vertex -13.2 -10 10
    endloop
  endfacet
  facet normal 0.998027 1.39422e-17 0.06279
    outer loop
      vertex -13.2 -10 10
      vertex -13.1669 -10 9.4736
      vertex -13.1669 2.10356e-15 9.4736
    endloop
  endfacet
  facet normal 0.998027 1.39422e-17 0.06279
    outer loop
      vertex -13.2 2.22045e-15 10
      vertex -13.2 -10 10
      vertex -13.1669 2.10356e-15 9.4736
    endloop
  endfacet
  facet normal 0.982287 -4.16072e-17 -0.187382
    outer loop
      vertex -13.068 2.45237e-15 11.0445
      vertex -13.068 -10 11.0445
      vertex -13.1669 -10 10.5264
    endloop
  endfacet
  facet normal 0.982287 -4.16072e-17 -0.187382
    outer loop
      vertex -13.1669 2.33733e-15 10.5264
      vertex -13.068 2.45237e-15 11.0445
      vertex -13.1669 -10 10.5264
    endloop
  endfacet
  facet normal 0.951056 -6.86156e-17 -0.309017
    outer loop
      vertex -12.9051 2.56375e-15 11.5461
      vertex -12.9051 -10 11.5461
      vertex -13.068 -10 11.0445
    endloop
  endfacet
  facet normal 0.951056 -6.86156e-17 -0.309017
    outer loop
      vertex -13.068 2.45237e-15 11.0445
      vertex -12.9051 2.56375e-15 11.5461
      vertex -13.068 -10 11.0445
    endloop
  endfacet
  facet normal 0.904827 -9.4542e-17 -0.425779
    outer loop
      vertex -12.6805 2.66972e-15 12.0234
      vertex -12.6805 -10 12.0234
      vertex -12.9051 -10 11.5461
    endloop
  endfacet
  facet normal 0.904827 -9.4542e-17 -0.425779
    outer loop
      vertex -12.9051 2.56375e-15 11.5461
      vertex -12.6805 2.66972e-15 12.0234
      vertex -12.9051 -10 11.5461
    endloop
  endfacet
  facet normal 0.844328 -1.18977e-16 -0.535827
    outer loop
      vertex -12.3979 2.76861e-15 12.4687
      vertex -12.3979 -10 12.4687
      vertex -12.6805 -10 12.0234
    endloop
  endfacet
  facet normal 0.844328 -1.18977e-16 -0.535827
    outer loop
      vertex -12.6805 2.66972e-15 12.0234
      vertex -12.3979 2.76861e-15 12.4687
      vertex -12.6805 -10 12.0234
    endloop
  endfacet
  facet normal 0.770514 -1.41536e-16 -0.637424
    outer loop
      vertex -12.0617 2.85885e-15 12.8751
      vertex -12.0617 -10 12.8751
      vertex -12.3979 -10 12.4687
    endloop
  endfacet
  facet normal 0.770514 -1.41536e-16 -0.637424
    outer loop
      vertex -12.3979 2.76861e-15 12.4687
      vertex -12.0617 2.85885e-15 12.8751
      vertex -12.3979 -10 12.4687
    endloop
  endfacet
  facet normal 0.684548 -1.61863e-16 -0.728968
    outer loop
      vertex -11.6772 -10 13.2362
      vertex -12.0617 -10 12.8751
      vertex -11.6772 2.93902e-15 13.2362
    endloop
  endfacet
  facet normal 0.684548 -1.61863e-16 -0.728968
    outer loop
      vertex -11.6772 2.93902e-15 13.2362
      vertex -12.0617 -10 12.8751
      vertex -12.0617 2.85885e-15 12.8751
    endloop
  endfacet
  facet normal 0.587785 -1.79638e-16 -0.809017
    outer loop
      vertex -11.2505 -10 13.5462
      vertex -11.6772 -10 13.2362
      vertex -11.2505 3.00786e-15 13.5462
    endloop
  endfacet
  facet normal 0.587785 -1.79638e-16 -0.809017
    outer loop
      vertex -11.2505 3.00786e-15 13.5462
      vertex -11.6772 -10 13.2362
      vertex -11.6772 2.93902e-15 13.2362
    endloop
  endfacet
  facet normal 0.481754 -1.94579e-16 -0.876306
    outer loop
      vertex -10.7883 -10 13.8003
      vertex -11.2505 -10 13.5462
      vertex -10.7883 3.06428e-15 13.8003
    endloop
  endfacet
  facet normal 0.481754 -1.94579e-16 -0.876306
    outer loop
      vertex -10.7883 3.06428e-15 13.8003
      vertex -11.2505 -10 13.5462
      vertex -11.2505 3.00786e-15 13.5462
    endloop
  endfacet
  facet normal 0.368123 -2.06452e-16 -0.929777
    outer loop
      vertex -10.2979 -10 13.9944
      vertex -10.7883 -10 13.8003
      vertex -10.2979 3.10739e-15 13.9944
    endloop
  endfacet
  facet normal 0.368123 -2.06452e-16 -0.929777
    outer loop
      vertex -10.2979 3.10739e-15 13.9944
      vertex -10.7883 -10 13.8003
      vertex -10.7883 3.06428e-15 13.8003
    endloop
  endfacet
  facet normal 0.24869 -2.15069e-16 -0.968583
    outer loop
      vertex -9.787 -10 14.1256
      vertex -10.2979 -10 13.9944
      vertex -9.787 3.13651e-15 14.1256
    endloop
  endfacet
  facet normal 0.24869 -2.15069e-16 -0.968583
    outer loop
      vertex -9.787 3.13651e-15 14.1256
      vertex -10.2979 -10 13.9944
      vertex -10.2979 3.10739e-15 13.9944
    endloop
  endfacet
  facet normal 0.125333 -2.20294e-16 -0.992115
    outer loop
      vertex -9.26372 -10 14.1917
      vertex -9.787 -10 14.1256
      vertex -9.26372 3.15119e-15 14.1917
    endloop
  endfacet
  facet normal 0.125333 -2.20294e-16 -0.992115
    outer loop
      vertex -9.26372 3.15119e-15 14.1917
      vertex -9.787 -10 14.1256
      vertex -9.787 3.13651e-15 14.1256
    endloop
  endfacet
  facet normal 0 -2.22045e-16 -1
    outer loop
      vertex -8.73628 -10 14.1917
      vertex -9.26372 -10 14.1917
      vertex -8.73628 3.15119e-15 14.1917
    endloop
  endfacet
  facet normal 0 -2.22045e-16 -1
    outer loop
      vertex -8.73628 3.15119e-15 14.1917
      vertex -9.26372 -10 14.1917
      vertex -9.26372 3.15119e-15 14.1917
    endloop
  endfacet
  facet normal -0.125333 -2.20294e-16 -0.992115
    outer loop
      vertex -8.213 -10 14.1256
      vertex -8.73628 -10 14.1917
      vertex -8.213 3.13651e-15 14.1256
    endloop
  endfacet
  facet normal -0.125333 -2.20294e-16 -0.992115
    outer loop
      vertex -8.213 3.13651e-15 14.1256
      vertex -8.73628 -10 14.1917
      vertex -8.73628 3.15119e-15 14.1917
    endloop
  endfacet
  facet normal -0.24869 -2.15069e-16 -0.968583
    outer loop
      vertex -7.70213 -10 13.9944
      vertex -8.213 -10 14.1256
      vertex -7.70213 3.10739e-15 13.9944
    endloop
  endfacet
  facet normal -0.24869 -2.15069e-16 -0.968583
    outer loop
      vertex -7.70213 3.10739e-15 13.9944
      vertex -8.213 -10 14.1256
      vertex -8.213 3.13651e-15 14.1256
    endloop
  endfacet
  facet normal -0.368123 -2.06452e-16 -0.929777
    outer loop
      vertex -7.21173 -10 13.8003
      vertex -7.70213 -10 13.9944
      vertex -7.21173 3.06428e-15 13.8003
    endloop
  endfacet
  facet normal -0.368123 -2.06452e-16 -0.929777
    outer loop
      vertex -7.21173 3.06428e-15 13.8003
      vertex -7.70213 -10 13.9944
      vertex -7.70213 3.10739e-15 13.9944
    endloop
  endfacet
  facet normal -0.481754 -1.94579e-16 -0.876306
    outer loop
      vertex -6.74953 -10 13.5462
      vertex -7.21173 -10 13.8003
      vertex -6.74953 3.00786e-15 13.5462
    endloop
  endfacet
  facet normal -0.481754 -1.94579e-16 -0.876306
    outer loop
      vertex -6.74953 3.00786e-15 13.5462
      vertex -7.21173 -10 13.8003
      vertex -7.21173 3.06428e-15 13.8003
    endloop
  endfacet
  facet normal -0.587785 -1.79638e-16 -0.809017
    outer loop
      vertex -6.32282 -10 13.2362
      vertex -6.74953 -10 13.5462
      vertex -6.32282 2.93902e-15 13.2362
    endloop
  endfacet
  facet normal -0.587785 -1.79638e-16 -0.809017
    outer loop
      vertex -6.32282 2.93902e-15 13.2362
      vertex -6.74953 -10 13.5462
      vertex -6.74953 3.00786e-15 13.5462
    endloop
  endfacet
  facet normal -0.684548 -1.61863e-16 -0.728968
    outer loop
      vertex -5.93833 -10 12.8751
      vertex -6.32282 -10 13.2362
      vertex -5.93833 2.85885e-15 12.8751
    endloop
  endfacet
  facet normal -0.684548 -1.61863e-16 -0.728968
    outer loop
      vertex -5.93833 2.85885e-15 12.8751
      vertex -6.32282 -10 13.2362
      vertex -6.32282 2.93902e-15 13.2362
    endloop
  endfacet
  facet normal -0.770514 -1.41536e-16 -0.637424
    outer loop
      vertex -5.60213 -10 12.4687
      vertex -5.93833 -10 12.8751
      vertex -5.60213 2.76861e-15 12.4687
    endloop
  endfacet
  facet normal -0.770514 -1.41536e-16 -0.637424
    outer loop
      vertex -5.60213 2.76861e-15 12.4687
      vertex -5.93833 -10 12.8751
      vertex -5.93833 2.85885e-15 12.8751
    endloop
  endfacet
  facet normal -0.844328 -1.18977e-16 -0.535827
    outer loop
      vertex -5.31951 -10 12.0234
      vertex -5.60213 -10 12.4687
      vertex -5.31951 2.66972e-15 12.0234
    endloop
  endfacet
  facet normal -0.844328 -1.18977e-16 -0.535827
    outer loop
      vertex -5.31951 2.66972e-15 12.0234
      vertex -5.60213 -10 12.4687
      vertex -5.60213 2.76861e-15 12.4687
    endloop
  endfacet
  facet normal -0.904827 -9.4542e-17 -0.425779
    outer loop
      vertex -5.09494 -10 11.5461
      vertex -5.31951 -10 12.0234
      vertex -5.09494 2.56375e-15 11.5461
    endloop
  endfacet
  facet normal -0.904827 -9.4542e-17 -0.425779
    outer loop
      vertex -5.09494 2.56375e-15 11.5461
      vertex -5.31951 -10 12.0234
      vertex -5.31951 2.66972e-15 12.0234
    endloop
  endfacet
  facet normal -0.951056 -6.86156e-17 -0.309017
    outer loop
      vertex -4.93195 -10 11.0445
      vertex -5.09494 -10 11.5461
      vertex -4.93195 2.45237e-15 11.0445
    endloop
  endfacet
  facet normal -0.951056 -6.86156e-17 -0.309017
    outer loop
      vertex -4.93195 2.45237e-15 11.0445
      vertex -5.09494 -10 11.5461
      vertex -5.09494 2.56375e-15 11.5461
    endloop
  endfacet
  facet normal -0.982287 -4.16072e-17 -0.187382
    outer loop
      vertex -4.83312 -10 10.5264
      vertex -4.93195 -10 11.0445
      vertex -4.83312 2.33733e-15 10.5264
    endloop
  endfacet
  facet normal -0.982287 -4.16072e-17 -0.187382
    outer loop
      vertex -4.83312 2.33733e-15 10.5264
      vertex -4.93195 -10 11.0445
      vertex -4.93195 2.45237e-15 11.0445
    endloop
  endfacet
  facet normal -0.998027 -1.39422e-17 -0.06279
    outer loop
      vertex -4.8 -10 10
      vertex -4.83312 -10 10.5264
      vertex -4.8 2.22045e-15 10
    endloop
  endfacet
  facet normal -0.998027 -1.39422e-17 -0.06279
    outer loop
      vertex -4.8 2.22045e-15 10
      vertex -4.83312 -10 10.5264
      vertex -4.83312 2.33733e-15 10.5264
    endloop
  endfacet
  facet normal -0.998027 1.39422e-17 0.06279
    outer loop
      vertex -4.8 -10 10
      vertex -4.8 2.22045e-15 10
      vertex -4.83312 -10 9.4736
    endloop
  endfacet
  facet normal -0.998027 1.39422e-17 0.06279
    outer loop
      vertex -4.83312 -10 9.4736
      vertex -4.8 2.22045e-15 10
      vertex -4.83312 2.10356e-15 9.4736
    endloop
  endfacet
  facet normal -0.982287 4.16072e-17 0.187382
    outer loop
      vertex -4.83312 -10 9.4736
      vertex -4.83312 2.10356e-15 9.4736
      vertex -4.93195 -10 8.9555
    endloop
  endfacet
  facet normal -0.982287 4.16072e-17 0.187382
    outer loop
      vertex -4.93195 -10 8.9555
      vertex -4.83312 2.10356e-15 9.4736
      vertex -4.93195 1.98852e-15 8.9555
    endloop
  endfacet
  facet normal -0.951056 6.86156e-17 0.309017
    outer loop
      vertex -4.93195 -10 8.9555
      vertex -4.93195 1.98852e-15 8.9555
      vertex -5.09494 -10 8.45388
    endloop
  endfacet
  facet normal -0.951056 6.86156e-17 0.309017
    outer loop
      vertex -5.09494 -10 8.45388
      vertex -4.93195 1.98852e-15 8.9555
      vertex -5.09494 1.87714e-15 8.45388
    endloop
  endfacet
  facet normal -0.904827 9.4542e-17 0.425779
    outer loop
      vertex -5.09494 -10 8.45388
      vertex -5.09494 1.87714e-15 8.45388
      vertex -5.31951 -10 7.97664
    endloop
  endfacet
  facet normal -0.904827 9.4542e-17 0.425779
    outer loop
      vertex -5.31951 -10 7.97664
      vertex -5.09494 1.87714e-15 8.45388
      vertex -5.31951 1.77117e-15 7.97663
    endloop
  endfacet
  facet normal -0.844328 1.18977e-16 0.535827
    outer loop
      vertex -5.31951 -10 7.97664
      vertex -5.31951 1.77117e-15 7.97663
      vertex -5.60213 -10 7.5313
    endloop
  endfacet
  facet normal -0.844328 1.18977e-16 0.535827
    outer loop
      vertex -5.60213 -10 7.5313
      vertex -5.31951 1.77117e-15 7.97663
      vertex -5.60213 1.67228e-15 7.5313
    endloop
  endfacet
  facet normal -0.770514 1.41536e-16 0.637424
    outer loop
      vertex -5.60213 -10 7.5313
      vertex -5.60213 1.67228e-15 7.5313
      vertex -5.93833 -10 7.1249
    endloop
  endfacet
  facet normal -0.770514 1.41536e-16 0.637424
    outer loop
      vertex -5.93833 -10 7.1249
      vertex -5.60213 1.67228e-15 7.5313
      vertex -5.93833 1.58205e-15 7.1249
    endloop
  endfacet
  facet normal -0.684548 1.61863e-16 0.728968
    outer loop
      vertex -6.32282 -10 6.76384
      vertex -5.93833 -10 7.1249
      vertex -5.93833 1.58205e-15 7.1249
    endloop
  endfacet
  facet normal -0.684548 1.61863e-16 0.728968
    outer loop
      vertex -6.32282 1.50188e-15 6.76384
      vertex -6.32282 -10 6.76384
      vertex -5.93833 1.58205e-15 7.1249
    endloop
  endfacet
  facet normal -0.587785 1.79638e-16 0.809017
    outer loop
      vertex -6.74953 -10 6.45382
      vertex -6.32282 -10 6.76384
      vertex -6.32282 1.50188e-15 6.76384
    endloop
  endfacet
  facet normal -0.587785 1.79638e-16 0.809017
    outer loop
      vertex -6.74953 1.43304e-15 6.45382
      vertex -6.74953 -10 6.45382
      vertex -6.32282 1.50188e-15 6.76384
    endloop
  endfacet
  facet normal -0.481754 1.94579e-16 0.876306
    outer loop
      vertex -7.21173 -10 6.19973
      vertex -6.74953 -10 6.45382
      vertex -6.74953 1.43304e-15 6.45382
    endloop
  endfacet
  facet normal -0.481754 1.94579e-16 0.876306
    outer loop
      vertex -7.21173 1.37662e-15 6.19973
      vertex -7.21173 -10 6.19973
      vertex -6.74953 1.43304e-15 6.45382
    endloop
  endfacet
  facet normal -0.368123 2.06452e-16 0.929777
    outer loop
      vertex -7.70213 -10 6.00556
      vertex -7.21173 -10 6.19973
      vertex -7.21173 1.37662e-15 6.19973
    endloop
  endfacet
  facet normal -0.368123 2.06452e-16 0.929777
    outer loop
      vertex -7.70213 1.3335e-15 6.00556
      vertex -7.70213 -10 6.00556
      vertex -7.21173 1.37662e-15 6.19973
    endloop
  endfacet
  facet normal -0.24869 2.15069e-16 0.968583
    outer loop
      vertex -8.213 -10 5.87439
      vertex -7.70213 -10 6.00556
      vertex -7.70213 1.3335e-15 6.00556
    endloop
  endfacet
  facet normal -0.24869 2.15069e-16 0.968583
    outer loop
      vertex -8.213 1.30438e-15 5.87439
      vertex -8.213 -10 5.87439
      vertex -7.70213 1.3335e-15 6.00556
    endloop
  endfacet
  facet normal -0.125333 2.20294e-16 0.992115
    outer loop
      vertex -8.73628 -10 5.80829
      vertex -8.213 -10 5.87439
      vertex -8.213 1.30438e-15 5.87439
    endloop
  endfacet
  facet normal -0.125333 2.20294e-16 0.992115
    outer loop
      vertex -8.73628 1.2897e-15 5.80829
      vertex -8.73628 -10 5.80829
      vertex -8.213 1.30438e-15 5.87439
    endloop
  endfacet
  facet normal 0 2.22045e-16 1
    outer loop
      vertex -9.26372 -10 5.80829
      vertex -8.73628 -10 5.80829
      vertex -8.73628 1.2897e-15 5.80829
    endloop
  endfacet
  facet normal 0 2.22045e-16 1
    outer loop
      vertex -9.26372 1.2897e-15 5.80829
      vertex -9.26372 -10 5.80829
      vertex -8.73628 1.2897e-15 5.80829
    endloop
  endfacet
  facet normal 0.125333 2.20294e-16 0.992115
    outer loop
      vertex -9.787 -10 5.87439
      vertex -9.26372 -10 5.80829
      vertex -9.26372 1.2897e-15 5.80829
    endloop
  endfacet
  facet normal 0.125333 2.20294e-16 0.992115
    outer loop
      vertex -9.787 1.30438e-15 5.87439
      vertex -9.787 -10 5.87439
      vertex -9.26372 1.2897e-15 5.80829
    endloop
  endfacet
  facet normal 0.24869 2.15069e-16 0.968583
    outer loop
      vertex -10.2979 -10 6.00556
      vertex -9.787 -10 5.87439
      vertex -9.787 1.30438e-15 5.87439
    endloop
  endfacet
  facet normal 0.24869 2.15069e-16 0.968583
    outer loop
      vertex -10.2979 1.3335e-15 6.00556
      vertex -10.2979 -10 6.00556
      vertex -9.787 1.30438e-15 5.87439
    endloop
  endfacet
  facet normal 0.368123 2.06452e-16 0.929777
    outer loop
      vertex -10.7883 -10 6.19973
      vertex -10.2979 -10 6.00556
      vertex -10.2979 1.3335e-15 6.00556
    endloop
  endfacet
  facet normal 0.368123 2.06452e-16 0.929777
    outer loop
      vertex -10.7883 1.37662e-15 6.19973
      vertex -10.7883 -10 6.19973
      vertex -10.2979 1.3335e-15 6.00556
    endloop
  endfacet
  facet normal 0.481754 1.94579e-16 0.876306
    outer loop
      vertex -11.2505 -10 6.45382
      vertex -10.7883 -10 6.19973
      vertex -10.7883 1.37662e-15 6.19973
    endloop
  endfacet
  facet normal 0.481754 1.94579e-16 0.876306
    outer loop
      vertex -11.2505 1.43304e-15 6.45382
      vertex -11.2505 -10 6.45382
      vertex -10.7883 1.37662e-15 6.19973
    endloop
  endfacet
  facet normal 0.587785 1.79638e-16 0.809017
    outer loop
      vertex -11.6772 -10 6.76384
      vertex -11.2505 -10 6.45382
      vertex -11.2505 1.43304e-15 6.45382
    endloop
  endfacet
  facet normal 0.587785 1.79638e-16 0.809017
    outer loop
      vertex -11.6772 1.50188e-15 6.76384
      vertex -11.6772 -10 6.76384
      vertex -11.2505 1.43304e-15 6.45382
    endloop
  endfacet
  facet normal 0.684548 1.61863e-16 0.728968
    outer loop
      vertex -12.0617 -10 7.1249
      vertex -11.6772 -10 6.76384
      vertex -11.6772 1.50188e-15 6.76384
    endloop
  endfacet
  facet normal 0.684548 1.61863e-16 0.728968
    outer loop
      vertex -12.0617 1.58205e-15 7.1249
      vertex -12.0617 -10 7.1249
      vertex -11.6772 1.50188e-15 6.76384
    endloop
  endfacet
  facet normal 0.770514 1.41536e-16 0.637424
    outer loop
      vertex -12.3979 -10 7.5313
      vertex -12.0617 -10 7.1249
      vertex -12.0617 1.58205e-15 7.1249
    endloop
  endfacet
  facet normal 0.770514 1.41536e-16 0.637424
    outer loop
      vertex -12.3979 1.67228e-15 7.5313
      vertex -12.3979 -10 7.5313
      vertex -12.0617 1.58205e-15 7.1249
    endloop
  endfacet
  facet normal 0.844328 1.18977e-16 0.535827
    outer loop
      vertex -12.6805 -10 7.97664
      vertex -12.3979 -10 7.5313
      vertex -12.3979 1.67228e-15 7.5313
    endloop
  endfacet
  facet normal 0.844328 1.18977e-16 0.535827
    outer loop
      vertex -12.6805 1.77117e-15 7.97663
      vertex -12.6805 -10 7.97664
      vertex -12.3979 1.67228e-15 7.5313
    endloop
  endfacet
  facet normal 0.904827 9.4542e-17 0.425779
    outer loop
      vertex -12.9051 -10 8.45388
      vertex -12.6805 -10 7.97664
      vertex -12.6805 1.77117e-15 7.97663
    endloop
  endfacet
  facet normal 0.904827 9.4542e-17 0.425779
    outer loop
      vertex -12.9051 1.87714e-15 8.45388
      vertex -12.9051 -10 8.45388
      vertex -12.6805 1.77117e-15 7.97663
    endloop
  endfacet
  facet normal 0.951056 6.86156e-17 0.309017
    outer loop
      vertex -13.068 -10 8.9555
      vertex -12.9051 -10 8.45388
      vertex -12.9051 1.87714e-15 8.45388
    endloop
  endfacet
  facet normal 0.951056 6.86156e-17 0.309017
    outer loop
      vertex -13.068 1.98852e-15 8.9555
      vertex -13.068 -10 8.9555
      vertex -12.9051 1.87714e-15 8.45388
    endloop
  endfacet
  facet normal 0.982287 4.16072e-17 0.187382
    outer loop
      vertex -13.1669 -10 9.4736
      vertex -13.068 -10 8.9555
      vertex -13.068 1.98852e-15 8.9555
    endloop
  endfacet
  facet normal 0.982287 4.16072e-17 0.187382
    outer loop
      vertex -13.1669 2.10356e-15 9.4736
      vertex -13.1669 -10 9.4736
      vertex -13.068 1.98852e-15 8.9555
    endloop
  endfacet
  facet normal 1 0 0
    outer loop
      vertex 10 -18 50
      vertex 10 -23 50
      vertex 10 -23 12
    endloop
  endfacet
  facet normal 1 0 0
    outer loop
      vertex 10 -18 12
      vertex 10 -18 50
      vertex 10 -23 12
    endloop
  endfacet
  facet normal 0 2.22045e-16 1
    outer loop
      vertex 10 -23 12
      vertex 170 -23 12
      vertex 170 -18 12
    endloop
  endfacet
  facet normal 0 2.22045e-16 1
    outer loop
      vertex 10 -18 12
      vertex 10 -23 12
      vertex 170 -18 12
    endloop
  endfacet
  facet normal -1 0 0
    outer loop
      vertex 170 -23 50
      vertex 170 -18 50
      vertex 170 -23 12
    endloop
  endfacet
  facet normal -1 0 0
    outer loop
      vertex 170 -23 12
      vertex 170 -18 50
      vertex 170 -18 12
    endloop
  endfacet
  facet normal 0 2.22045e-16 1
    outer loop
      vertex 172.5 -7.5 5
      vertex 175 -18 5
      vertex 175 -5 5
    endloop
  endfacet
  facet normal 0 2.22045e-16 1
    outer loop
      vertex 172.5 -15.5 5
      vertex 7.5 -15.5 5
      vertex 5 -18 5
    endloop
  endfacet
  facet normal 0 2.22045e-16 1
    outer loop
      vertex 5 -5 5
      vertex 7.5 -7.5 5
      vertex 175 -5 5
    endloop
  endfacet
  facet normal 0 2.22045e-16 1
    outer loop
      vertex 5 -5 5
      vertex 5 -18 5
      vertex 7.5 -7.5 5
    endloop
  endfacet
  facet normal 0 2.22045e-16 1
    outer loop
      vertex 172.5 -15.5 5
      vertex 175 -18 5
      vertex 172.5 -7.5 5
    endloop
  endfacet
  facet normal 0 2.22045e-16 1
    outer loop
      vertex 5 -18 5
      vertex 175 -18 5
      vertex 172.5 -15.5 5
    endloop
  endfacet
  facet normal 0 2.22045e-16 1
    outer loop
      vertex 7.5 -7.5 5
      vertex 5 -18 5
      vertex 7.5 -15.5 5
    endloop
  endfacet
  facet normal 0 2.22045e-16 1
    outer loop
      vertex 7.5 -7.5 5
      vertex 172.5 -7.5 5
      vertex 175 -5 5
    endloop
  endfacet
  facet normal 0 1 -2.22045e-16
    outer loop
      vertex 10 -18 50
      vertex 10 -18 12
      vertex 5 -18 50
    endloop
  endfacet
  facet normal 0 1 -2.22045e-16
    outer loop
      vertex 5 -18 5
      vertex 10 -18 12
      vertex 175 -18 5
    endloop
  endfacet
  facet normal 0 1 -2.22045e-16
    outer loop
      vertex 175 -18 50
      vertex 170 -18 12
      vertex 170 -18 50
    endloop
  endfacet
  facet normal 0 1 -2.22045e-16
    outer loop
      vertex 175 -18 5
      vertex 170 -18 12
      vertex 175 -18 50
    endloop
  endfacet
  facet normal 0 1 -2.22045e-16
    outer loop
      vertex 10 -18 12
      vertex 170 -18 12
      vertex 175 -18 5
    endloop
  endfacet
  facet normal 0 1 -2.22045e-16
    outer loop
      vertex 5 -18 50
      vertex 10 -18 12
      vertex 5 -18 5
    endloop
  endfacet
  facet normal -1 0 0
    outer loop
      vertex 175 -18 50
      vertex 175 -5 50
      vertex 175 -18 5
    endloop
  endfacet
  facet normal -1 0 0
    outer loop
      vertex 175 -18 5
      vertex 175 -5 50
      vertex 175 -5 5
    endloop
  endfacet
  facet normal 0 -1 2.22045e-16
    outer loop
      vertex 175 -5 5
      vertex 175 -5 50
      vertex 5 -5 50
    endloop
  endfacet
  facet normal 0 -1 2.22045e-16
    outer loop
      vertex 5 -5 5
      vertex 175 -5 5
      vertex 5 -5 50
    endloop
  endfacet
  facet normal 1 0 0
    outer loop
      vertex 5 -5 50
      vertex 5 -18 50
      vertex 5 -18 5
    endloop
  endfacet
  facet normal 1 0 0
    outer loop
      vertex 5 -5 5
      vertex 5 -5 50
      vertex 5 -18 5
    endloop
  endfacet
endsolid OpenSCAD_Model
