solid OpenSCAD_Model
  facet normal -1 0 0
    outer loop
      vertex 0 0 0
      vertex 0 -23 5.10703e-15
      vertex 0 1.19904e-14 54
    endloop
  endfacet
  facet normal -1 0 0
    outer loop
      vertex 0 1.19904e-14 54
      vertex 0 -23 5.10703e-15
      vertex 0 -23 54
    endloop
  endfacet
  facet normal 0 -2.22045e-16 -1
    outer loop
      vertex 128 -10 2.22045e-15
      vertex 147 0 0
      vertex 147 -10 2.22045e-15
    endloop
  endfacet
  facet normal 0 -2.22045e-16 -1
    outer loop
      vertex 120.5 -7.5 1.66533e-15
      vertex 147 0 0
      vertex 128 -10 2.22045e-15
    endloop
  endfacet
  facet normal 0 -2.22045e-16 -1
    outer loop
      vertex 7.5 -7.5 1.66533e-15
      vertex 147 0 0
      vertex 120.5 -7.5 1.66533e-15
    endloop
  endfacet
  facet normal 0 -2.22045e-16 -1
    outer loop
      vertex 0 0 0
      vertex 147 0 0
      vertex 7.5 -7.5 1.66533e-15
    endloop
  endfacet
  facet normal 0 -2.22045e-16 -1
    outer loop
      vertex 0 0 0
      vertex 7.5 -7.5 1.66533e-15
      vertex 0 -23 5.10703e-15
    endloop
  endfacet
  facet normal 0 -2.22045e-16 -1
    outer loop
      vertex 120.5 -15.5 3.44169e-15
      vertex 0 -23 5.10703e-15
      vertex 7.5 -15.5 3.44169e-15
    endloop
  endfacet
  facet normal 0 -2.22045e-16 -1
    outer loop
      vertex 7.5 -7.5 1.66533e-15
      vertex 7.5 -15.5 3.44169e-15
      vertex 0 -23 5.10703e-15
    endloop
  endfacet
  facet normal 0 -2.22045e-16 -1
    outer loop
      vertex 0 -23 5.10703e-15
      vertex 120.5 -15.5 3.44169e-15
      vertex 128 -23 5.10703e-15
    endloop
  endfacet
  facet normal 0 -2.22045e-16 -1
    outer loop
      vertex 120.5 -7.5 1.66533e-15
      vertex 128 -10 2.22045e-15
      vertex 120.5 -15.5 3.44169e-15
    endloop
  endfacet
  facet normal 0 -2.22045e-16 -1
    outer loop
      vertex 128 -23 5.10703e-15
      vertex 120.5 -15.5 3.44169e-15
      vertex 128 -10 2.22045e-15
    endloop
  endfacet
  facet normal 0 1 -2.22045e-16
    outer loop
      vertex 0 0 0
      vertex 0 1.19904e-14 54
      vertex 147 0 0
    endloop
  endfacet
  facet normal 0 1 -2.22045e-16
    outer loop
      vertex 128 4.44089e-15 20
      vertex 0 1.19904e-14 54
      vertex 128 1.19904e-14 54
    endloop
  endfacet
  facet normal 0 1 -2.22045e-16
    outer loop
      vertex 134.9 2.22045e-15 10
      vertex 0 1.19904e-14 54
      vertex 128 4.44089e-15 20
    endloop
  endfacet
  facet normal 0 1 -2.22045e-16
    outer loop
      vertex 136.106 1.79853e-15 8.09986
      vertex 147 0 0
      vertex 135.875 1.82674e-15 8.22691
    endloop
  endfacet
  facet normal 0 1 -2.22045e-16
    outer loop
      vertex 134.917 2.162e-15 9.7368
      vertex 0 1.19904e-14 54
      vertex 134.9 2.22045e-15 10
    endloop
  endfacet
  facet normal 0 1 -2.22045e-16
    outer loop
      vertex 134.917 2.27889e-15 10.2632
      vertex 134.9 2.22045e-15 10
      vertex 128 4.44089e-15 20
    endloop
  endfacet
  facet normal 0 1 -2.22045e-16
    outer loop
      vertex 134.966 2.10448e-15 9.47775
      vertex 0 1.19904e-14 54
      vertex 134.917 2.162e-15 9.7368
    endloop
  endfacet
  facet normal 0 1 -2.22045e-16
    outer loop
      vertex 135.047 2.04879e-15 9.22694
      vertex 0 1.19904e-14 54
      vertex 134.966 2.10448e-15 9.47775
    endloop
  endfacet
  facet normal 0 1 -2.22045e-16
    outer loop
      vertex 135.16 1.99581e-15 8.98832
      vertex 0 1.19904e-14 54
      vertex 135.047 2.04879e-15 9.22694
    endloop
  endfacet
  facet normal 0 1 -2.22045e-16
    outer loop
      vertex 135.301 1.94637e-15 8.76565
      vertex 0 1.19904e-14 54
      vertex 135.16 1.99581e-15 8.98832
    endloop
  endfacet
  facet normal 0 1 -2.22045e-16
    outer loop
      vertex 135.469 1.90125e-15 8.56245
      vertex 0 1.19904e-14 54
      vertex 135.301 1.94637e-15 8.76565
    endloop
  endfacet
  facet normal 0 1 -2.22045e-16
    outer loop
      vertex 135.661 1.86116e-15 8.38192
      vertex 0 1.19904e-14 54
      vertex 135.469 1.90125e-15 8.56245
    endloop
  endfacet
  facet normal 0 1 -2.22045e-16
    outer loop
      vertex 147 0 0
      vertex 0 1.19904e-14 54
      vertex 135.661 1.86116e-15 8.38192
    endloop
  endfacet
  facet normal 0 1 -2.22045e-16
    outer loop
      vertex 147 0 0
      vertex 135.661 1.86116e-15 8.38192
      vertex 135.875 1.82674e-15 8.22691
    endloop
  endfacet
  facet normal 0 1 -2.22045e-16
    outer loop
      vertex 136.351 1.77697e-15 8.00278
      vertex 147 0 0
      vertex 136.106 1.79853e-15 8.09986
    endloop
  endfacet
  facet normal 0 1 -2.22045e-16
    outer loop
      vertex 136.606 1.76241e-15 7.9372
      vertex 147 0 0
      vertex 136.351 1.77697e-15 8.00278
    endloop
  endfacet
  facet normal 0 1 -2.22045e-16
    outer loop
      vertex 136.868 1.75507e-15 7.90414
      vertex 147 0 0
      vertex 136.606 1.76241e-15 7.9372
    endloop
  endfacet
  facet normal 0 1 -2.22045e-16
    outer loop
      vertex 137.132 1.75507e-15 7.90414
      vertex 147 0 0
      vertex 136.868 1.75507e-15 7.90414
    endloop
  endfacet
  facet normal 0 1 -2.22045e-16
    outer loop
      vertex 137.394 1.76241e-15 7.9372
      vertex 147 0 0
      vertex 137.132 1.75507e-15 7.90414
    endloop
  endfacet
  facet normal 0 1 -2.22045e-16
    outer loop
      vertex 137.649 1.77697e-15 8.00278
      vertex 147 0 0
      vertex 137.394 1.76241e-15 7.9372
    endloop
  endfacet
  facet normal 0 1 -2.22045e-16
    outer loop
      vertex 138.699 1.94637e-15 8.76565
      vertex 147 0 0
      vertex 138.531 1.90125e-15 8.56245
    endloop
  endfacet
  facet normal 0 1 -2.22045e-16
    outer loop
      vertex 147 0 0
      vertex 137.649 1.77697e-15 8.00278
      vertex 137.894 1.79853e-15 8.09986
    endloop
  endfacet
  facet normal 0 1 -2.22045e-16
    outer loop
      vertex 147 0 0
      vertex 137.894 1.79853e-15 8.09986
      vertex 138.125 1.82674e-15 8.22691
    endloop
  endfacet
  facet normal 0 1 -2.22045e-16
    outer loop
      vertex 147 0 0
      vertex 138.125 1.82674e-15 8.22691
      vertex 138.339 1.86116e-15 8.38192
    endloop
  endfacet
  facet normal 0 1 -2.22045e-16
    outer loop
      vertex 147 0 0
      vertex 138.339 1.86116e-15 8.38192
      vertex 138.531 1.90125e-15 8.56245
    endloop
  endfacet
  facet normal 0 1 -2.22045e-16
    outer loop
      vertex 135.661 2.57973e-15 11.6181
      vertex 128 4.44089e-15 20
      vertex 135.875 2.61415e-15 11.7731
    endloop
  endfacet
  facet normal 0 1 -2.22045e-16
    outer loop
      vertex 147 0 0
      vertex 138.699 1.94637e-15 8.76565
      vertex 138.84 1.99581e-15 8.98832
    endloop
  endfacet
  facet normal 0 1 -2.22045e-16
    outer loop
      vertex 147 0 0
      vertex 138.84 1.99581e-15 8.98832
      vertex 138.953 2.04879e-15 9.22694
    endloop
  endfacet
  facet normal 0 1 -2.22045e-16
    outer loop
      vertex 147 0 0
      vertex 138.953 2.04879e-15 9.22694
      vertex 139.034 2.10448e-15 9.47775
    endloop
  endfacet
  facet normal 0 1 -2.22045e-16
    outer loop
      vertex 147 0 0
      vertex 139.034 2.10448e-15 9.47775
      vertex 139.083 2.162e-15 9.7368
    endloop
  endfacet
  facet normal 0 1 -2.22045e-16
    outer loop
      vertex 147 0 0
      vertex 139.083 2.162e-15 9.7368
      vertex 139.1 2.22045e-15 10
    endloop
  endfacet
  facet normal 0 1 -2.22045e-16
    outer loop
      vertex 147 0 0
      vertex 139.1 2.22045e-15 10
      vertex 139.083 2.27889e-15 10.2632
    endloop
  endfacet
  facet normal 0 1 -2.22045e-16
    outer loop
      vertex 147 0 0
      vertex 139.083 2.27889e-15 10.2632
      vertex 139.034 2.33641e-15 10.5222
    endloop
  endfacet
  facet normal 0 1 -2.22045e-16
    outer loop
      vertex 137.649 2.66392e-15 11.9972
      vertex 128 4.44089e-15 20
      vertex 137.894 2.64236e-15 11.9001
    endloop
  endfacet
  facet normal 0 1 -2.22045e-16
    outer loop
      vertex 137.394 2.67848e-15 12.0628
      vertex 128 4.44089e-15 20
      vertex 137.649 2.66392e-15 11.9972
    endloop
  endfacet
  facet normal 0 1 -2.22045e-16
    outer loop
      vertex 137.132 2.68582e-15 12.0959
      vertex 128 4.44089e-15 20
      vertex 137.394 2.67848e-15 12.0628
    endloop
  endfacet
  facet normal 0 1 -2.22045e-16
    outer loop
      vertex 136.868 2.68582e-15 12.0959
      vertex 128 4.44089e-15 20
      vertex 137.132 2.68582e-15 12.0959
    endloop
  endfacet
  facet normal 0 1 -2.22045e-16
    outer loop
      vertex 136.606 2.67848e-15 12.0628
      vertex 128 4.44089e-15 20
      vertex 136.868 2.68582e-15 12.0959
    endloop
  endfacet
  facet normal 0 1 -2.22045e-16
    outer loop
      vertex 136.351 2.66392e-15 11.9972
      vertex 128 4.44089e-15 20
      vertex 136.606 2.67848e-15 12.0628
    endloop
  endfacet
  facet normal 0 1 -2.22045e-16
    outer loop
      vertex 136.106 2.64236e-15 11.9001
      vertex 128 4.44089e-15 20
      vertex 136.351 2.66392e-15 11.9972
    endloop
  endfacet
  facet normal 0 1 -2.22045e-16
    outer loop
      vertex 135.875 2.61415e-15 11.7731
      vertex 128 4.44089e-15 20
      vertex 136.106 2.64236e-15 11.9001
    endloop
  endfacet
  facet normal 0 1 -2.22045e-16
    outer loop
      vertex 135.469 2.53965e-15 11.4375
      vertex 128 4.44089e-15 20
      vertex 135.661 2.57973e-15 11.6181
    endloop
  endfacet
  facet normal 0 1 -2.22045e-16
    outer loop
      vertex 135.301 2.49453e-15 11.2343
      vertex 128 4.44089e-15 20
      vertex 135.469 2.53965e-15 11.4375
    endloop
  endfacet
  facet normal 0 1 -2.22045e-16
    outer loop
      vertex 135.16 2.44508e-15 11.0117
      vertex 128 4.44089e-15 20
      vertex 135.301 2.49453e-15 11.2343
    endloop
  endfacet
  facet normal 0 1 -2.22045e-16
    outer loop
      vertex 135.16 2.44508e-15 11.0117
      vertex 135.047 2.3921e-15 10.7731
      vertex 128 4.44089e-15 20
    endloop
  endfacet
  facet normal 0 1 -2.22045e-16
    outer loop
      vertex 135.047 2.3921e-15 10.7731
      vertex 134.966 2.33641e-15 10.5222
      vertex 128 4.44089e-15 20
    endloop
  endfacet
  facet normal 0 1 -2.22045e-16
    outer loop
      vertex 134.966 2.33641e-15 10.5222
      vertex 134.917 2.27889e-15 10.2632
      vertex 128 4.44089e-15 20
    endloop
  endfacet
  facet normal 0 1 -2.22045e-16
    outer loop
      vertex 147 4.44089e-15 20
      vertex 147 0 0
      vertex 139.034 2.33641e-15 10.5222
    endloop
  endfacet
  facet normal 0 1 -2.22045e-16
    outer loop
      vertex 147 4.44089e-15 20
      vertex 139.034 2.33641e-15 10.5222
      vertex 138.953 2.3921e-15 10.7731
    endloop
  endfacet
  facet normal 0 1 -2.22045e-16
    outer loop
      vertex 147 4.44089e-15 20
      vertex 138.953 2.3921e-15 10.7731
      vertex 138.84 2.44508e-15 11.0117
    endloop
  endfacet
  facet normal 0 1 -2.22045e-16
    outer loop
      vertex 147 4.44089e-15 20
      vertex 138.84 2.44508e-15 11.0117
      vertex 138.699 2.49453e-15 11.2343
    endloop
  endfacet
  facet normal 0 1 -2.22045e-16
    outer loop
      vertex 147 4.44089e-15 20
      vertex 138.699 2.49453e-15 11.2343
      vertex 138.531 2.53965e-15 11.4375
    endloop
  endfacet
  facet normal 0 1 -2.22045e-16
    outer loop
      vertex 147 4.44089e-15 20
      vertex 138.531 2.53965e-15 11.4375
      vertex 138.339 2.57973e-15 11.6181
    endloop
  endfacet
  facet normal 0 1 -2.22045e-16
    outer loop
      vertex 147 4.44089e-15 20
      vertex 138.339 2.57973e-15 11.6181
      vertex 138.125 2.61415e-15 11.7731
    endloop
  endfacet
  facet normal 0 1 -2.22045e-16
    outer loop
      vertex 147 4.44089e-15 20
      vertex 138.125 2.61415e-15 11.7731
      vertex 137.894 2.64236e-15 11.9001
    endloop
  endfacet
  facet normal 0 1 -2.22045e-16
    outer loop
      vertex 147 4.44089e-15 20
      vertex 137.894 2.64236e-15 11.9001
      vertex 128 4.44089e-15 20
    endloop
  endfacet
  facet normal 0 2.22045e-16 1
    outer loop
      vertex 5 -18 54
      vertex 0 1.19904e-14 54
      vertex 0 -23 54
    endloop
  endfacet
  facet normal 0 2.22045e-16 1
    outer loop
      vertex 5 -18 54
      vertex 5 -5 54
      vertex 0 1.19904e-14 54
    endloop
  endfacet
  facet normal 0 2.22045e-16 1
    outer loop
      vertex 15 -18 54
      vertex 5 -18 54
      vertex 0 -23 54
    endloop
  endfacet
  facet normal 0 2.22045e-16 1
    outer loop
      vertex 128 1.19904e-14 54
      vertex 0 1.19904e-14 54
      vertex 5 -5 54
    endloop
  endfacet
  facet normal 0 2.22045e-16 1
    outer loop
      vertex 123 -18 54
      vertex 128 1.19904e-14 54
      vertex 123 -5 54
    endloop
  endfacet
  facet normal 0 2.22045e-16 1
    outer loop
      vertex 128 -23 54
      vertex 128 1.19904e-14 54
      vertex 123 -18 54
    endloop
  endfacet
  facet normal 0 2.22045e-16 1
    outer loop
      vertex 128 -23 54
      vertex 123 -18 54
      vertex 113 -23 54
    endloop
  endfacet
  facet normal 0 2.22045e-16 1
    outer loop
      vertex 113 -18 54
      vertex 113 -23 54
      vertex 123 -18 54
    endloop
  endfacet
  facet normal 0 2.22045e-16 1
    outer loop
      vertex 15 -23 54
      vertex 15 -18 54
      vertex 0 -23 54
    endloop
  endfacet
  facet normal 0 2.22045e-16 1
    outer loop
      vertex 5 -5 54
      vertex 123 -5 54
      vertex 128 1.19904e-14 54
    endloop
  endfacet
  facet normal 0 -1 2.22045e-16
    outer loop
      vertex 15 -23 25
      vertex 0 -23 5.10703e-15
      vertex 128 -23 5.10703e-15
    endloop
  endfacet
  facet normal 0 -1 2.22045e-16
    outer loop
      vertex 15 -23 25
      vertex 15 -23 54
      vertex 0 -23 54
    endloop
  endfacet
  facet normal 0 -1 2.22045e-16
    outer loop
      vertex 128 -23 54
      vertex 113 -23 54
      vertex 128 -23 5.10703e-15
    endloop
  endfacet
  facet normal 0 -1 2.22045e-16
    outer loop
      vertex 113 -23 54
      vertex 113 -23 25
      vertex 128 -23 5.10703e-15
    endloop
  endfacet
  facet normal 0 -1 2.22045e-16
    outer loop
      vertex 0 -23 54
      vertex 0 -23 5.10703e-15
      vertex 15 -23 25
    endloop
  endfacet
  facet normal 0 -1 2.22045e-16
    outer loop
      vertex 113 -23 25
      vertex 15 -23 25
      vertex 128 -23 5.10703e-15
    endloop
  endfacet
  facet normal 1 0 0
    outer loop
      vertex 128 -23 5.10703e-15
      vertex 128 -10 2.22045e-15
      vertex 128 -10 20
    endloop
  endfacet
  facet normal 1 0 0
    outer loop
      vertex 128 1.19904e-14 54
      vertex 128 -23 5.10703e-15
      vertex 128 -10 20
    endloop
  endfacet
  facet normal 1 0 0
    outer loop
      vertex 128 4.44089e-15 20
      vertex 128 1.19904e-14 54
      vertex 128 -10 20
    endloop
  endfacet
  facet normal 1 0 0
    outer loop
      vertex 128 1.19904e-14 54
      vertex 128 -23 54
      vertex 128 -23 5.10703e-15
    endloop
  endfacet
  facet normal 0 -1 2.22045e-16
    outer loop
      vertex 137.132 -10 7.90414
      vertex 128 -10 2.22045e-15
      vertex 147 -10 2.22045e-15
    endloop
  endfacet
  facet normal 0 -1 2.22045e-16
    outer loop
      vertex 138.699 -10 11.2343
      vertex 138.84 -10 11.0117
      vertex 147 -10 2.22045e-15
    endloop
  endfacet
  facet normal 0 -1 2.22045e-16
    outer loop
      vertex 128 -10 20
      vertex 128 -10 2.22045e-15
      vertex 134.917 -10 9.7368
    endloop
  endfacet
  facet normal 0 -1 2.22045e-16
    outer loop
      vertex 137.394 -10 7.9372
      vertex 137.132 -10 7.90414
      vertex 147 -10 2.22045e-15
    endloop
  endfacet
  facet normal 0 -1 2.22045e-16
    outer loop
      vertex 128 -10 20
      vertex 134.917 -10 9.7368
      vertex 134.9 -10 10
    endloop
  endfacet
  facet normal 0 -1 2.22045e-16
    outer loop
      vertex 128 -10 20
      vertex 134.9 -10 10
      vertex 134.917 -10 10.2632
    endloop
  endfacet
  facet normal 0 -1 2.22045e-16
    outer loop
      vertex 128 -10 20
      vertex 134.917 -10 10.2632
      vertex 134.966 -10 10.5222
    endloop
  endfacet
  facet normal 0 -1 2.22045e-16
    outer loop
      vertex 137.894 -10 8.09986
      vertex 137.649 -10 8.00278
      vertex 147 -10 2.22045e-15
    endloop
  endfacet
  facet normal 0 -1 2.22045e-16
    outer loop
      vertex 128 -10 20
      vertex 134.966 -10 10.5222
      vertex 135.047 -10 10.7731
    endloop
  endfacet
  facet normal 0 -1 2.22045e-16
    outer loop
      vertex 138.125 -10 8.22691
      vertex 137.894 -10 8.09986
      vertex 147 -10 2.22045e-15
    endloop
  endfacet
  facet normal 0 -1 2.22045e-16
    outer loop
      vertex 128 -10 20
      vertex 135.047 -10 10.7731
      vertex 135.16 -10 11.0117
    endloop
  endfacet
  facet normal 0 -1 2.22045e-16
    outer loop
      vertex 137.649 -10 8.00278
      vertex 137.394 -10 7.9372
      vertex 147 -10 2.22045e-15
    endloop
  endfacet
  facet normal 0 -1 2.22045e-16
    outer loop
      vertex 128 -10 20
      vertex 135.16 -10 11.0117
      vertex 135.301 -10 11.2343
    endloop
  endfacet
  facet normal 0 -1 2.22045e-16
    outer loop
      vertex 128 -10 20
      vertex 135.301 -10 11.2343
      vertex 135.469 -10 11.4375
    endloop
  endfacet
  facet normal 0 -1 2.22045e-16
    outer loop
      vertex 139.083 -10 9.7368
      vertex 139.034 -10 9.47775
      vertex 147 -10 2.22045e-15
    endloop
  endfacet
  facet normal 0 -1 2.22045e-16
    outer loop
      vertex 128 -10 20
      vertex 135.469 -10 11.4375
      vertex 135.661 -10 11.6181
    endloop
  endfacet
  facet normal 0 -1 2.22045e-16
    outer loop
      vertex 138.699 -10 8.76565
      vertex 138.531 -10 8.56245
      vertex 147 -10 2.22045e-15
    endloop
  endfacet
  facet normal 0 -1 2.22045e-16
    outer loop
      vertex 147 -10 20
      vertex 128 -10 20
      vertex 135.875 -10 11.7731
    endloop
  endfacet
  facet normal 0 -1 2.22045e-16
    outer loop
      vertex 138.339 -10 8.38192
      vertex 138.125 -10 8.22691
      vertex 147 -10 2.22045e-15
    endloop
  endfacet
  facet normal 0 -1 2.22045e-16
    outer loop
      vertex 147 -10 20
      vertex 135.875 -10 11.7731
      vertex 136.106 -10 11.9001
    endloop
  endfacet
  facet normal 0 -1 2.22045e-16
    outer loop
      vertex 147 -10 20
      vertex 136.106 -10 11.9001
      vertex 136.351 -10 11.9972
    endloop
  endfacet
  facet normal 0 -1 2.22045e-16
    outer loop
      vertex 138.953 -10 9.22694
      vertex 138.84 -10 8.98832
      vertex 147 -10 2.22045e-15
    endloop
  endfacet
  facet normal 0 -1 2.22045e-16
    outer loop
      vertex 147 -10 20
      vertex 136.351 -10 11.9972
      vertex 136.606 -10 12.0628
    endloop
  endfacet
  facet normal 0 -1 2.22045e-16
    outer loop
      vertex 139.034 -10 9.47775
      vertex 138.953 -10 9.22694
      vertex 147 -10 2.22045e-15
    endloop
  endfacet
  facet normal 0 -1 2.22045e-16
    outer loop
      vertex 147 -10 20
      vertex 136.606 -10 12.0628
      vertex 136.868 -10 12.0959
    endloop
  endfacet
  facet normal 0 -1 2.22045e-16
    outer loop
      vertex 138.84 -10 8.98832
      vertex 138.699 -10 8.76565
      vertex 147 -10 2.22045e-15
    endloop
  endfacet
  facet normal 0 -1 2.22045e-16
    outer loop
      vertex 147 -10 20
      vertex 136.868 -10 12.0959
      vertex 137.132 -10 12.0959
    endloop
  endfacet
  facet normal 0 -1 2.22045e-16
    outer loop
      vertex 147 -10 20
      vertex 137.132 -10 12.0959
      vertex 137.394 -10 12.0628
    endloop
  endfacet
  facet normal 0 -1 2.22045e-16
    outer loop
      vertex 139.1 -10 10
      vertex 139.083 -10 9.7368
      vertex 147 -10 2.22045e-15
    endloop
  endfacet
  facet normal 0 -1 2.22045e-16
    outer loop
      vertex 147 -10 20
      vertex 137.394 -10 12.0628
      vertex 137.649 -10 11.9972
    endloop
  endfacet
  facet normal 0 -1 2.22045e-16
    outer loop
      vertex 139.083 -10 10.2632
      vertex 139.1 -10 10
      vertex 147 -10 2.22045e-15
    endloop
  endfacet
  facet normal 0 -1 2.22045e-16
    outer loop
      vertex 147 -10 20
      vertex 137.649 -10 11.9972
      vertex 137.894 -10 11.9001
    endloop
  endfacet
  facet normal 0 -1 2.22045e-16
    outer loop
      vertex 139.034 -10 10.5222
      vertex 139.083 -10 10.2632
      vertex 147 -10 2.22045e-15
    endloop
  endfacet
  facet normal 0 -1 2.22045e-16
    outer loop
      vertex 147 -10 20
      vertex 137.894 -10 11.9001
      vertex 138.125 -10 11.7731
    endloop
  endfacet
  facet normal 0 -1 2.22045e-16
    outer loop
      vertex 138.953 -10 10.7731
      vertex 139.034 -10 10.5222
      vertex 147 -10 2.22045e-15
    endloop
  endfacet
  facet normal 0 -1 2.22045e-16
    outer loop
      vertex 147 -10 20
      vertex 138.125 -10 11.7731
      vertex 138.339 -10 11.6181
    endloop
  endfacet
  facet normal 0 -1 2.22045e-16
    outer loop
      vertex 138.84 -10 11.0117
      vertex 138.953 -10 10.7731
      vertex 147 -10 2.22045e-15
    endloop
  endfacet
  facet normal 0 -1 2.22045e-16
    outer loop
      vertex 147 -10 20
      vertex 138.339 -10 11.6181
      vertex 138.531 -10 11.4375
    endloop
  endfacet
  facet normal 0 -1 2.22045e-16
    outer loop
      vertex 147 -10 20
      vertex 138.699 -10 11.2343
      vertex 147 -10 2.22045e-15
    endloop
  endfacet
  facet normal 0 -1 2.22045e-16
    outer loop
      vertex 147 -10 20
      vertex 138.531 -10 11.4375
      vertex 138.699 -10 11.2343
    endloop
  endfacet
  facet normal 0 -1 2.22045e-16
    outer loop
      vertex 136.868 -10 7.90414
      vertex 128 -10 2.22045e-15
      vertex 137.132 -10 7.90414
    endloop
  endfacet
  facet normal 0 -1 2.22045e-16
    outer loop
      vertex 136.606 -10 7.9372
      vertex 128 -10 2.22045e-15
      vertex 136.868 -10 7.90414
    endloop
  endfacet
  facet normal 0 -1 2.22045e-16
    outer loop
      vertex 136.351 -10 8.00278
      vertex 128 -10 2.22045e-15
      vertex 136.606 -10 7.9372
    endloop
  endfacet
  facet normal 0 -1 2.22045e-16
    outer loop
      vertex 136.106 -10 8.09986
      vertex 128 -10 2.22045e-15
      vertex 136.351 -10 8.00278
    endloop
  endfacet
  facet normal 0 -1 2.22045e-16
    outer loop
      vertex 135.875 -10 8.22691
      vertex 128 -10 2.22045e-15
      vertex 136.106 -10 8.09986
    endloop
  endfacet
  facet normal 0 -1 2.22045e-16
    outer loop
      vertex 135.661 -10 8.38192
      vertex 128 -10 2.22045e-15
      vertex 135.875 -10 8.22691
    endloop
  endfacet
  facet normal 0 -1 2.22045e-16
    outer loop
      vertex 135.469 -10 8.56245
      vertex 128 -10 2.22045e-15
      vertex 135.661 -10 8.38192
    endloop
  endfacet
  facet normal 0 -1 2.22045e-16
    outer loop
      vertex 135.301 -10 8.76565
      vertex 128 -10 2.22045e-15
      vertex 135.469 -10 8.56245
    endloop
  endfacet
  facet normal 0 -1 2.22045e-16
    outer loop
      vertex 135.16 -10 8.98832
      vertex 128 -10 2.22045e-15
      vertex 135.301 -10 8.76565
    endloop
  endfacet
  facet normal 0 -1 2.22045e-16
    outer loop
      vertex 135.047 -10 9.22694
      vertex 128 -10 2.22045e-15
      vertex 135.16 -10 8.98832
    endloop
  endfacet
  facet normal 0 -1 2.22045e-16
    outer loop
      vertex 134.966 -10 9.47775
      vertex 128 -10 2.22045e-15
      vertex 135.047 -10 9.22694
    endloop
  endfacet
  facet normal 0 -1 2.22045e-16
    outer loop
      vertex 134.917 -10 9.7368
      vertex 128 -10 2.22045e-15
      vertex 134.966 -10 9.47775
    endloop
  endfacet
  facet normal 0 -1 2.22045e-16
    outer loop
      vertex 138.531 -10 8.56245
      vertex 138.339 -10 8.38192
      vertex 147 -10 2.22045e-15
    endloop
  endfacet
  facet normal 0 -1 2.22045e-16
    outer loop
      vertex 135.661 -10 11.6181
      vertex 135.875 -10 11.7731
      vertex 128 -10 20
    endloop
  endfacet
  facet normal 1 0 0
    outer loop
      vertex 147 -10 2.22045e-15
      vertex 147 0 0
      vertex 147 4.44089e-15 20
    endloop
  endfacet
  facet normal 1 0 0
    outer loop
      vertex 147 -10 20
      vertex 147 -10 2.22045e-15
      vertex 147 4.44089e-15 20
    endloop
  endfacet
  facet normal 1 0 0
    outer loop
      vertex 7.5 -7.5 5
      vertex 7.5 -15.5 5
      vertex 7.5 -15.5 3.44169e-15
    endloop
  endfacet
  facet normal 1 0 0
    outer loop
      vertex 7.5 -7.5 1.66533e-15
      vertex 7.5 -7.5 5
      vertex 7.5 -15.5 3.44169e-15
    endloop
  endfacet
  facet normal 0 -1 2.22045e-16
    outer loop
      vertex 120.5 -7.5 1.66533e-15
      vertex 120.5 -7.5 5
      vertex 7.5 -7.5 5
    endloop
  endfacet
  facet normal 0 -1 2.22045e-16
    outer loop
      vertex 7.5 -7.5 1.66533e-15
      vertex 120.5 -7.5 1.66533e-15
      vertex 7.5 -7.5 5
    endloop
  endfacet
  facet normal -1 0 0
    outer loop
      vertex 120.5 -15.5 5
      vertex 120.5 -7.5 5
      vertex 120.5 -15.5 3.44169e-15
    endloop
  endfacet
  facet normal -1 0 0
    outer loop
      vertex 120.5 -15.5 3.44169e-15
      vertex 120.5 -7.5 5
      vertex 120.5 -7.5 1.66533e-15
    endloop
  endfacet
  facet normal 0 1 -2.22045e-16
    outer loop
      vertex 120.5 -15.5 5
      vertex 120.5 -15.5 3.44169e-15
      vertex 7.5 -15.5 5
    endloop
  endfacet
  facet normal 0 1 -2.22045e-16
    outer loop
      vertex 7.5 -15.5 5
      vertex 120.5 -15.5 3.44169e-15
      vertex 7.5 -15.5 3.44169e-15
    endloop
  endfacet
  facet normal 0 2.22045e-16 1
    outer loop
      vertex 147 4.44089e-15 20
      vertex 128 4.44089e-15 20
      vertex 128 -10 20
    endloop
  endfacet
  facet normal 0 2.22045e-16 1
    outer loop
      vertex 147 -10 20
      vertex 147 4.44089e-15 20
      vertex 128 -10 20
    endloop
  endfacet
  facet normal 0.998027 -1.39422e-17 -0.06279
    outer loop
      vertex 134.917 2.27889e-15 10.2632
      vertex 134.917 -10 10.2632
      vertex 134.9 -10 10
    endloop
  endfacet
  facet normal 0.998027 -1.39422e-17 -0.06279
    outer loop
      vertex 134.9 2.22045e-15 10
      vertex 134.917 2.27889e-15 10.2632
      vertex 134.9 -10 10
    endloop
  endfacet
  facet normal 0.998027 1.39422e-17 0.06279
    outer loop
      vertex 134.9 -10 10
      vertex 134.917 -10 9.7368
      vertex 134.917 2.162e-15 9.7368
    endloop
  endfacet
  facet normal 0.998027 1.39422e-17 0.06279
    outer loop
      vertex 134.9 2.22045e-15 10
      vertex 134.9 -10 10
      vertex 134.917 2.162e-15 9.7368
    endloop
  endfacet
  facet normal 0.982287 -4.16068e-17 -0.18738
    outer loop
      vertex 134.966 2.33641e-15 10.5222
      vertex 134.966 -10 10.5222
      vertex 134.917 -10 10.2632
    endloop
  endfacet
  facet normal 0.982287 -4.16068e-17 -0.18738
    outer loop
      vertex 134.917 2.27889e-15 10.2632
      vertex 134.966 2.33641e-15 10.5222
      vertex 134.917 -10 10.2632
    endloop
  endfacet
  facet normal 0.951057 -6.86155e-17 -0.309017
    outer loop
      vertex 135.047 2.3921e-15 10.7731
      vertex 135.047 -10 10.7731
      vertex 134.966 -10 10.5222
    endloop
  endfacet
  facet normal 0.951057 -6.86155e-17 -0.309017
    outer loop
      vertex 134.966 2.33641e-15 10.5222
      vertex 135.047 2.3921e-15 10.7731
      vertex 134.966 -10 10.5222
    endloop
  endfacet
  facet normal 0.904826 -9.45423e-17 -0.425781
    outer loop
      vertex 135.16 2.44508e-15 11.0117
      vertex 135.16 -10 11.0117
      vertex 135.047 -10 10.7731
    endloop
  endfacet
  facet normal 0.904826 -9.45423e-17 -0.425781
    outer loop
      vertex 135.047 2.3921e-15 10.7731
      vertex 135.16 2.44508e-15 11.0117
      vertex 135.047 -10 10.7731
    endloop
  endfacet
  facet normal 0.844328 -1.18977e-16 -0.535826
    outer loop
      vertex 135.301 2.49453e-15 11.2343
      vertex 135.301 -10 11.2343
      vertex 135.16 -10 11.0117
    endloop
  endfacet
  facet normal 0.844328 -1.18977e-16 -0.535826
    outer loop
      vertex 135.16 2.44508e-15 11.0117
      vertex 135.301 2.49453e-15 11.2343
      vertex 135.16 -10 11.0117
    endloop
  endfacet
  facet normal 0.770513 -1.41537e-16 -0.637425
    outer loop
      vertex 135.469 2.53965e-15 11.4375
      vertex 135.469 -10 11.4375
      vertex 135.301 -10 11.2343
    endloop
  endfacet
  facet normal 0.770513 -1.41537e-16 -0.637425
    outer loop
      vertex 135.301 2.49453e-15 11.2343
      vertex 135.469 2.53965e-15 11.4375
      vertex 135.301 -10 11.2343
    endloop
  endfacet
  facet normal 0.684547 -1.61864e-16 -0.728969
    outer loop
      vertex 135.661 -10 11.6181
      vertex 135.469 -10 11.4375
      vertex 135.661 2.57973e-15 11.6181
    endloop
  endfacet
  facet normal 0.684547 -1.61864e-16 -0.728969
    outer loop
      vertex 135.661 2.57973e-15 11.6181
      vertex 135.469 -10 11.4375
      vertex 135.469 2.53965e-15 11.4375
    endloop
  endfacet
  facet normal 0.587786 -1.79638e-16 -0.809017
    outer loop
      vertex 135.875 -10 11.7731
      vertex 135.661 -10 11.6181
      vertex 135.875 2.61415e-15 11.7731
    endloop
  endfacet
  facet normal 0.587786 -1.79638e-16 -0.809017
    outer loop
      vertex 135.875 2.61415e-15 11.7731
      vertex 135.661 -10 11.6181
      vertex 135.661 2.57973e-15 11.6181
    endloop
  endfacet
  facet normal 0.481754 -1.94579e-16 -0.876306
    outer loop
      vertex 136.106 -10 11.9001
      vertex 135.875 -10 11.7731
      vertex 136.106 2.64236e-15 11.9001
    endloop
  endfacet
  facet normal 0.481754 -1.94579e-16 -0.876306
    outer loop
      vertex 136.106 2.64236e-15 11.9001
      vertex 135.875 -10 11.7731
      vertex 135.875 2.61415e-15 11.7731
    endloop
  endfacet
  facet normal 0.368125 -2.06452e-16 -0.929776
    outer loop
      vertex 136.351 -10 11.9972
      vertex 136.106 -10 11.9001
      vertex 136.351 2.66392e-15 11.9972
    endloop
  endfacet
  facet normal 0.368125 -2.06452e-16 -0.929776
    outer loop
      vertex 136.351 2.66392e-15 11.9972
      vertex 136.106 -10 11.9001
      vertex 136.106 2.64236e-15 11.9001
    endloop
  endfacet
  facet normal 0.248688 -2.15069e-16 -0.968584
    outer loop
      vertex 136.606 -10 12.0628
      vertex 136.351 -10 11.9972
      vertex 136.606 2.67848e-15 12.0628
    endloop
  endfacet
  facet normal 0.248688 -2.15069e-16 -0.968584
    outer loop
      vertex 136.606 2.67848e-15 12.0628
      vertex 136.351 -10 11.9972
      vertex 136.351 2.66392e-15 11.9972
    endloop
  endfacet
  facet normal 0.125333 -2.20294e-16 -0.992115
    outer loop
      vertex 136.868 -10 12.0959
      vertex 136.606 -10 12.0628
      vertex 136.868 2.68582e-15 12.0959
    endloop
  endfacet
  facet normal 0.125333 -2.20294e-16 -0.992115
    outer loop
      vertex 136.868 2.68582e-15 12.0959
      vertex 136.606 -10 12.0628
      vertex 136.606 2.67848e-15 12.0628
    endloop
  endfacet
  facet normal 0 -2.22045e-16 -1
    outer loop
      vertex 137.132 -10 12.0959
      vertex 136.868 -10 12.0959
      vertex 137.132 2.68582e-15 12.0959
    endloop
  endfacet
  facet normal 0 -2.22045e-16 -1
    outer loop
      vertex 137.132 2.68582e-15 12.0959
      vertex 136.868 -10 12.0959
      vertex 136.868 2.68582e-15 12.0959
    endloop
  endfacet
  facet normal -0.125333 -2.20294e-16 -0.992115
    outer loop
      vertex 137.394 -10 12.0628
      vertex 137.132 -10 12.0959
      vertex 137.394 2.67848e-15 12.0628
    endloop
  endfacet
  facet normal -0.125333 -2.20294e-16 -0.992115
    outer loop
      vertex 137.394 2.67848e-15 12.0628
      vertex 137.132 -10 12.0959
      vertex 137.132 2.68582e-15 12.0959
    endloop
  endfacet
  facet normal -0.248688 -2.15069e-16 -0.968584
    outer loop
      vertex 137.649 -10 11.9972
      vertex 137.394 -10 12.0628
      vertex 137.649 2.66392e-15 11.9972
    endloop
  endfacet
  facet normal -0.248688 -2.15069e-16 -0.968584
    outer loop
      vertex 137.649 2.66392e-15 11.9972
      vertex 137.394 -10 12.0628
      vertex 137.394 2.67848e-15 12.0628
    endloop
  endfacet
  facet normal -0.368125 -2.06452e-16 -0.929776
    outer loop
      vertex 137.894 -10 11.9001
      vertex 137.649 -10 11.9972
      vertex 137.894 2.64236e-15 11.9001
    endloop
  endfacet
  facet normal -0.368125 -2.06452e-16 -0.929776
    outer loop
      vertex 137.894 2.64236e-15 11.9001
      vertex 137.649 -10 11.9972
      vertex 137.649 2.66392e-15 11.9972
    endloop
  endfacet
  facet normal -0.481754 -1.94579e-16 -0.876306
    outer loop
      vertex 138.125 -10 11.7731
      vertex 137.894 -10 11.9001
      vertex 138.125 2.61415e-15 11.7731
    endloop
  endfacet
  facet normal -0.481754 -1.94579e-16 -0.876306
    outer loop
      vertex 138.125 2.61415e-15 11.7731
      vertex 137.894 -10 11.9001
      vertex 137.894 2.64236e-15 11.9001
    endloop
  endfacet
  facet normal -0.587786 -1.79638e-16 -0.809017
    outer loop
      vertex 138.339 -10 11.6181
      vertex 138.125 -10 11.7731
      vertex 138.339 2.57973e-15 11.6181
    endloop
  endfacet
  facet normal -0.587786 -1.79638e-16 -0.809017
    outer loop
      vertex 138.339 2.57973e-15 11.6181
      vertex 138.125 -10 11.7731
      vertex 138.125 2.61415e-15 11.7731
    endloop
  endfacet
  facet normal -0.684547 -1.61864e-16 -0.728969
    outer loop
      vertex 138.531 -10 11.4375
      vertex 138.339 -10 11.6181
      vertex 138.531 2.53965e-15 11.4375
    endloop
  endfacet
  facet normal -0.684547 -1.61864e-16 -0.728969
    outer loop
      vertex 138.531 2.53965e-15 11.4375
      vertex 138.339 -10 11.6181
      vertex 138.339 2.57973e-15 11.6181
    endloop
  endfacet
  facet normal -0.770513 -1.41537e-16 -0.637425
    outer loop
      vertex 138.699 -10 11.2343
      vertex 138.531 -10 11.4375
      vertex 138.699 2.49453e-15 11.2343
    endloop
  endfacet
  facet normal -0.770513 -1.41537e-16 -0.637425
    outer loop
      vertex 138.699 2.49453e-15 11.2343
      vertex 138.531 -10 11.4375
      vertex 138.531 2.53965e-15 11.4375
    endloop
  endfacet
  facet normal -0.844328 -1.18977e-16 -0.535826
    outer loop
      vertex 138.84 -10 11.0117
      vertex 138.699 -10 11.2343
      vertex 138.84 2.44508e-15 11.0117
    endloop
  endfacet
  facet normal -0.844328 -1.18977e-16 -0.535826
    outer loop
      vertex 138.84 2.44508e-15 11.0117
      vertex 138.699 -10 11.2343
      vertex 138.699 2.49453e-15 11.2343
    endloop
  endfacet
  facet normal -0.904826 -9.45423e-17 -0.425781
    outer loop
      vertex 138.953 -10 10.7731
      vertex 138.84 -10 11.0117
      vertex 138.953 2.3921e-15 10.7731
    endloop
  endfacet
  facet normal -0.904826 -9.45423e-17 -0.425781
    outer loop
      vertex 138.953 2.3921e-15 10.7731
      vertex 138.84 -10 11.0117
      vertex 138.84 2.44508e-15 11.0117
    endloop
  endfacet
  facet normal -0.951057 -6.86155e-17 -0.309017
    outer loop
      vertex 139.034 -10 10.5222
      vertex 138.953 -10 10.7731
      vertex 139.034 2.33641e-15 10.5222
    endloop
  endfacet
  facet normal -0.951057 -6.86155e-17 -0.309017
    outer loop
      vertex 139.034 2.33641e-15 10.5222
      vertex 138.953 -10 10.7731
      vertex 138.953 2.3921e-15 10.7731
    endloop
  endfacet
  facet normal -0.982287 -4.16068e-17 -0.18738
    outer loop
      vertex 139.083 -10 10.2632
      vertex 139.034 -10 10.5222
      vertex 139.083 2.27889e-15 10.2632
    endloop
  endfacet
  facet normal -0.982287 -4.16068e-17 -0.18738
    outer loop
      vertex 139.083 2.27889e-15 10.2632
      vertex 139.034 -10 10.5222
      vertex 139.034 2.33641e-15 10.5222
    endloop
  endfacet
  facet normal -0.998027 -1.39422e-17 -0.06279
    outer loop
      vertex 139.1 -10 10
      vertex 139.083 -10 10.2632
      vertex 139.1 2.22045e-15 10
    endloop
  endfacet
  facet normal -0.998027 -1.39422e-17 -0.06279
    outer loop
      vertex 139.1 2.22045e-15 10
      vertex 139.083 -10 10.2632
      vertex 139.083 2.27889e-15 10.2632
    endloop
  endfacet
  facet normal -0.998027 1.39422e-17 0.06279
    outer loop
      vertex 139.1 -10 10
      vertex 139.1 2.22045e-15 10
      vertex 139.083 -10 9.7368
    endloop
  endfacet
  facet normal -0.998027 1.39422e-17 0.06279
    outer loop
      vertex 139.083 -10 9.7368
      vertex 139.1 2.22045e-15 10
      vertex 139.083 2.162e-15 9.7368
    endloop
  endfacet
  facet normal -0.982287 4.16068e-17 0.18738
    outer loop
      vertex 139.083 -10 9.7368
      vertex 139.083 2.162e-15 9.7368
      vertex 139.034 -10 9.47775
    endloop
  endfacet
  facet normal -0.982287 4.16068e-17 0.18738
    outer loop
      vertex 139.034 -10 9.47775
      vertex 139.083 2.162e-15 9.7368
      vertex 139.034 2.10448e-15 9.47775
    endloop
  endfacet
  facet normal -0.951057 6.86155e-17 0.309017
    outer loop
      vertex 139.034 -10 9.47775
      vertex 139.034 2.10448e-15 9.47775
      vertex 138.953 -10 9.22694
    endloop
  endfacet
  facet normal -0.951057 6.86155e-17 0.309017
    outer loop
      vertex 138.953 -10 9.22694
      vertex 139.034 2.10448e-15 9.47775
      vertex 138.953 2.04879e-15 9.22694
    endloop
  endfacet
  facet normal -0.904826 9.45423e-17 0.425781
    outer loop
      vertex 138.953 -10 9.22694
      vertex 138.953 2.04879e-15 9.22694
      vertex 138.84 -10 8.98832
    endloop
  endfacet
  facet normal -0.904826 9.45423e-17 0.425781
    outer loop
      vertex 138.84 -10 8.98832
      vertex 138.953 2.04879e-15 9.22694
      vertex 138.84 1.99581e-15 8.98832
    endloop
  endfacet
  facet normal -0.844328 1.18977e-16 0.535826
    outer loop
      vertex 138.84 -10 8.98832
      vertex 138.84 1.99581e-15 8.98832
      vertex 138.699 -10 8.76565
    endloop
  endfacet
  facet normal -0.844328 1.18977e-16 0.535826
    outer loop
      vertex 138.699 -10 8.76565
      vertex 138.84 1.99581e-15 8.98832
      vertex 138.699 1.94637e-15 8.76565
    endloop
  endfacet
  facet normal -0.770513 1.41537e-16 0.637425
    outer loop
      vertex 138.699 -10 8.76565
      vertex 138.699 1.94637e-15 8.76565
      vertex 138.531 -10 8.56245
    endloop
  endfacet
  facet normal -0.770513 1.41537e-16 0.637425
    outer loop
      vertex 138.531 -10 8.56245
      vertex 138.699 1.94637e-15 8.76565
      vertex 138.531 1.90125e-15 8.56245
    endloop
  endfacet
  facet normal -0.684547 1.61864e-16 0.728969
    outer loop
      vertex 138.339 -10 8.38192
      vertex 138.531 -10 8.56245
      vertex 138.531 1.90125e-15 8.56245
    endloop
  endfacet
  facet normal -0.684547 1.61864e-16 0.728969
    outer loop
      vertex 138.339 1.86116e-15 8.38192
      vertex 138.339 -10 8.38192
      vertex 138.531 1.90125e-15 8.56245
    endloop
  endfacet
  facet normal -0.587786 1.79638e-16 0.809017
    outer loop
      vertex 138.125 -10 8.22691
      vertex 138.339 -10 8.38192
      vertex 138.339 1.86116e-15 8.38192
    endloop
  endfacet
  facet normal -0.587786 1.79638e-16 0.809017
    outer loop
      vertex 138.125 1.82674e-15 8.22691
      vertex 138.125 -10 8.22691
      vertex 138.339 1.86116e-15 8.38192
    endloop
  endfacet
  facet normal -0.481754 1.94579e-16 0.876306
    outer loop
      vertex 137.894 -10 8.09986
      vertex 138.125 -10 8.22691
      vertex 138.125 1.82674e-15 8.22691
    endloop
  endfacet
  facet normal -0.481754 1.94579e-16 0.876306
    outer loop
      vertex 137.894 1.79853e-15 8.09986
      vertex 137.894 -10 8.09986
      vertex 138.125 1.82674e-15 8.22691
    endloop
  endfacet
  facet normal -0.368125 2.06452e-16 0.929776
    outer loop
      vertex 137.649 -10 8.00278
      vertex 137.894 -10 8.09986
      vertex 137.894 1.79853e-15 8.09986
    endloop
  endfacet
  facet normal -0.368125 2.06452e-16 0.929776
    outer loop
      vertex 137.649 1.77697e-15 8.00278
      vertex 137.649 -10 8.00278
      vertex 137.894 1.79853e-15 8.09986
    endloop
  endfacet
  facet normal -0.248688 2.15069e-16 0.968584
    outer loop
      vertex 137.394 -10 7.9372
      vertex 137.649 -10 8.00278
      vertex 137.649 1.77697e-15 8.00278
    endloop
  endfacet
  facet normal -0.248688 2.15069e-16 0.968584
    outer loop
      vertex 137.394 1.76241e-15 7.9372
      vertex 137.394 -10 7.9372
      vertex 137.649 1.77697e-15 8.00278
    endloop
  endfacet
  facet normal -0.125333 2.20294e-16 0.992115
    outer loop
      vertex 137.132 -10 7.90414
      vertex 137.394 -10 7.9372
      vertex 137.394 1.76241e-15 7.9372
    endloop
  endfacet
  facet normal -0.125333 2.20294e-16 0.992115
    outer loop
      vertex 137.132 1.75507e-15 7.90414
      vertex 137.132 -10 7.90414
      vertex 137.394 1.76241e-15 7.9372
    endloop
  endfacet
  facet normal 0 2.22045e-16 1
    outer loop
      vertex 136.868 -10 7.90414
      vertex 137.132 -10 7.90414
      vertex 137.132 1.75507e-15 7.90414
    endloop
  endfacet
  facet normal 0 2.22045e-16 1
    outer loop
      vertex 136.868 1.75507e-15 7.90414
      vertex 136.868 -10 7.90414
      vertex 137.132 1.75507e-15 7.90414
    endloop
  endfacet
  facet normal 0.125333 2.20294e-16 0.992115
    outer loop
      vertex 136.606 -10 7.9372
      vertex 136.868 -10 7.90414
      vertex 136.868 1.75507e-15 7.90414
    endloop
  endfacet
  facet normal 0.125333 2.20294e-16 0.992115
    outer loop
      vertex 136.606 1.76241e-15 7.9372
      vertex 136.606 -10 7.9372
      vertex 136.868 1.75507e-15 7.90414
    endloop
  endfacet
  facet normal 0.248688 2.15069e-16 0.968584
    outer loop
      vertex 136.351 -10 8.00278
      vertex 136.606 -10 7.9372
      vertex 136.606 1.76241e-15 7.9372
    endloop
  endfacet
  facet normal 0.248688 2.15069e-16 0.968584
    outer loop
      vertex 136.351 1.77697e-15 8.00278
      vertex 136.351 -10 8.00278
      vertex 136.606 1.76241e-15 7.9372
    endloop
  endfacet
  facet normal 0.368125 2.06452e-16 0.929776
    outer loop
      vertex 136.106 -10 8.09986
      vertex 136.351 -10 8.00278
      vertex 136.351 1.77697e-15 8.00278
    endloop
  endfacet
  facet normal 0.368125 2.06452e-16 0.929776
    outer loop
      vertex 136.106 1.79853e-15 8.09986
      vertex 136.106 -10 8.09986
      vertex 136.351 1.77697e-15 8.00278
    endloop
  endfacet
  facet normal 0.481754 1.94579e-16 0.876306
    outer loop
      vertex 135.875 -10 8.22691
      vertex 136.106 -10 8.09986
      vertex 136.106 1.79853e-15 8.09986
    endloop
  endfacet
  facet normal 0.481754 1.94579e-16 0.876306
    outer loop
      vertex 135.875 1.82674e-15 8.22691
      vertex 135.875 -10 8.22691
      vertex 136.106 1.79853e-15 8.09986
    endloop
  endfacet
  facet normal 0.587786 1.79638e-16 0.809017
    outer loop
      vertex 135.661 -10 8.38192
      vertex 135.875 -10 8.22691
      vertex 135.875 1.82674e-15 8.22691
    endloop
  endfacet
  facet normal 0.587786 1.79638e-16 0.809017
    outer loop
      vertex 135.661 1.86116e-15 8.38192
      vertex 135.661 -10 8.38192
      vertex 135.875 1.82674e-15 8.22691
    endloop
  endfacet
  facet normal 0.684547 1.61864e-16 0.728969
    outer loop
      vertex 135.469 -10 8.56245
      vertex 135.661 -10 8.38192
      vertex 135.661 1.86116e-15 8.38192
    endloop
  endfacet
  facet normal 0.684547 1.61864e-16 0.728969
    outer loop
      vertex 135.469 1.90125e-15 8.56245
      vertex 135.469 -10 8.56245
      vertex 135.661 1.86116e-15 8.38192
    endloop
  endfacet
  facet normal 0.770513 1.41537e-16 0.637425
    outer loop
      vertex 135.301 -10 8.76565
      vertex 135.469 -10 8.56245
      vertex 135.469 1.90125e-15 8.56245
    endloop
  endfacet
  facet normal 0.770513 1.41537e-16 0.637425
    outer loop
      vertex 135.301 1.94637e-15 8.76565
      vertex 135.301 -10 8.76565
      vertex 135.469 1.90125e-15 8.56245
    endloop
  endfacet
  facet normal 0.844328 1.18977e-16 0.535826
    outer loop
      vertex 135.16 -10 8.98832
      vertex 135.301 -10 8.76565
      vertex 135.301 1.94637e-15 8.76565
    endloop
  endfacet
  facet normal 0.844328 1.18977e-16 0.535826
    outer loop
      vertex 135.16 1.99581e-15 8.98832
      vertex 135.16 -10 8.98832
      vertex 135.301 1.94637e-15 8.76565
    endloop
  endfacet
  facet normal 0.904826 9.45423e-17 0.425781
    outer loop
      vertex 135.047 -10 9.22694
      vertex 135.16 -10 8.98832
      vertex 135.16 1.99581e-15 8.98832
    endloop
  endfacet
  facet normal 0.904826 9.45423e-17 0.425781
    outer loop
      vertex 135.047 2.04879e-15 9.22694
      vertex 135.047 -10 9.22694
      vertex 135.16 1.99581e-15 8.98832
    endloop
  endfacet
  facet normal 0.951057 6.86155e-17 0.309017
    outer loop
      vertex 134.966 -10 9.47775
      vertex 135.047 -10 9.22694
      vertex 135.047 2.04879e-15 9.22694
    endloop
  endfacet
  facet normal 0.951057 6.86155e-17 0.309017
    outer loop
      vertex 134.966 2.10448e-15 9.47775
      vertex 134.966 -10 9.47775
      vertex 135.047 2.04879e-15 9.22694
    endloop
  endfacet
  facet normal 0.982287 4.16068e-17 0.18738
    outer loop
      vertex 134.917 -10 9.7368
      vertex 134.966 -10 9.47775
      vertex 134.966 2.10448e-15 9.47775
    endloop
  endfacet
  facet normal 0.982287 4.16068e-17 0.18738
    outer loop
      vertex 134.917 2.162e-15 9.7368
      vertex 134.917 -10 9.7368
      vertex 134.966 2.10448e-15 9.47775
    endloop
  endfacet
  facet normal -1 0 0
    outer loop
      vertex 113 -23 54
      vertex 113 -18 54
      vertex 113 -23 25
    endloop
  endfacet
  facet normal -1 0 0
    outer loop
      vertex 113 -23 25
      vertex 113 -18 54
      vertex 113 -18 25
    endloop
  endfacet
  facet normal 0 1 -2.22045e-16
    outer loop
      vertex 15 -18 54
      vertex 15 -18 25
      vertex 5 -18 54
    endloop
  endfacet
  facet normal 0 1 -2.22045e-16
    outer loop
      vertex 5 -18 5
      vertex 15 -18 25
      vertex 123 -18 5
    endloop
  endfacet
  facet normal 0 1 -2.22045e-16
    outer loop
      vertex 123 -18 54
      vertex 113 -18 25
      vertex 113 -18 54
    endloop
  endfacet
  facet normal 0 1 -2.22045e-16
    outer loop
      vertex 123 -18 5
      vertex 113 -18 25
      vertex 123 -18 54
    endloop
  endfacet
  facet normal 0 1 -2.22045e-16
    outer loop
      vertex 15 -18 25
      vertex 113 -18 25
      vertex 123 -18 5
    endloop
  endfacet
  facet normal 0 1 -2.22045e-16
    outer loop
      vertex 5 -18 54
      vertex 15 -18 25
      vertex 5 -18 5
    endloop
  endfacet
  facet normal -1 0 0
    outer loop
      vertex 123 -18 54
      vertex 123 -5 54
      vertex 123 -18 5
    endloop
  endfacet
  facet normal -1 0 0
    outer loop
      vertex 123 -18 5
      vertex 123 -5 54
      vertex 123 -5 5
    endloop
  endfacet
  facet normal 0 -1 2.22045e-16
    outer loop
      vertex 123 -5 5
      vertex 123 -5 54
      vertex 5 -5 54
    endloop
  endfacet
  facet normal 0 -1 2.22045e-16
    outer loop
      vertex 5 -5 5
      vertex 123 -5 5
      vertex 5 -5 54
    endloop
  endfacet
  facet normal 1 0 0
    outer loop
      vertex 5 -5 54
      vertex 5 -18 54
      vertex 5 -18 5
    endloop
  endfacet
  facet normal 1 0 0
    outer loop
      vertex 5 -5 5
      vertex 5 -5 54
      vertex 5 -18 5
    endloop
  endfacet
  facet normal 1 0 0
    outer loop
      vertex 15 -18 54
      vertex 15 -23 54
      vertex 15 -23 25
    endloop
  endfacet
  facet normal 1 0 0
    outer loop
      vertex 15 -18 25
      vertex 15 -18 54
      vertex 15 -23 25
    endloop
  endfacet
  facet normal 0 2.22045e-16 1
    outer loop
      vertex 15 -23 25
      vertex 113 -23 25
      vertex 113 -18 25
    endloop
  endfacet
  facet normal 0 2.22045e-16 1
    outer loop
      vertex 15 -18 25
      vertex 15 -23 25
      vertex 113 -18 25
    endloop
  endfacet
  facet normal 0 2.22045e-16 1
    outer loop
      vertex 120.5 -7.5 5
      vertex 123 -18 5
      vertex 123 -5 5
    endloop
  endfacet
  facet normal 0 2.22045e-16 1
    outer loop
      vertex 120.5 -15.5 5
      vertex 7.5 -15.5 5
      vertex 5 -18 5
    endloop
  endfacet
  facet normal 0 2.22045e-16 1
    outer loop
      vertex 5 -5 5
      vertex 7.5 -7.5 5
      vertex 123 -5 5
    endloop
  endfacet
  facet normal 0 2.22045e-16 1
    outer loop
      vertex 5 -5 5
      vertex 5 -18 5
      vertex 7.5 -7.5 5
    endloop
  endfacet
  facet normal 0 2.22045e-16 1
    outer loop
      vertex 120.5 -15.5 5
      vertex 123 -18 5
      vertex 120.5 -7.5 5
    endloop
  endfacet
  facet normal 0 2.22045e-16 1
    outer loop
      vertex 5 -18 5
      vertex 123 -18 5
      vertex 120.5 -15.5 5
    endloop
  endfacet
  facet normal 0 2.22045e-16 1
    outer loop
      vertex 7.5 -7.5 5
      vertex 5 -18 5
      vertex 7.5 -15.5 5
    endloop
  endfacet
  facet normal 0 2.22045e-16 1
    outer loop
      vertex 7.5 -7.5 5
      vertex 120.5 -7.5 5
      vertex 123 -5 5
    endloop
  endfacet
endsolid OpenSCAD_Model
